<?xml version="1.0" encoding="UTF-8"?>
<svg xmlns="http://www.w3.org/2000/svg" viewBox="0 0 1200 900" width="1200" height="900" preserveAspectRatio="xMidYMid meet" aria-hidden="true" role="presentation">
  <!-- Variant=sparse seed=10 contour_paths=16 dot_count=94 -->
  <g class="neuro-background__field neuro-background__contours">
    <path d="M 38.37 90.4 C 56.37 90.27, 106.86 89.44, 146.4 89.64 C 185.94 89.85, 231.27 78.9, 275.6 91.62 C 319.93 104.33, 389.6 153.56, 412.4 165.94" fill="none" stroke="var(--neuro-bg-depth-secondary, rgba(126, 138, 164, 0.12))" stroke-width="0.72" stroke-linecap="round" stroke-linejoin="round" opacity="0.05" />
    <path d="M 45.94 103.85 C 62.68 104.11, 108.12 106.81, 146.4 105.41 C 184.68 104, 231.51 87.1, 275.6 95.42 C 319.69 103.74, 388.37 145.34, 410.92 155.32" fill="none" stroke="var(--neuro-bg-line-soft, rgba(120, 122, 132, 0.1))" stroke-width="0.84" stroke-linecap="round" stroke-linejoin="round" opacity="0.05" />
    <path d="M 38.64 106.51 C 56.6 103.05, 106.91 85.47, 146.4 85.79 C 185.89 86.11, 229.99 89.57, 275.6 108.41 C 321.21 127.25, 395.97 183.75, 420.04 198.82" fill="none" stroke="var(--neuro-bg-line-soft, rgba(120, 122, 132, 0.1))" stroke-width="0.79" stroke-linecap="round" stroke-linejoin="round" opacity="0.07" />
    <path d="M 45.25 116.65 C 62.11 111.13, 108.01 84.73, 146.4 83.52 C 184.79 82.31, 230.07 93.45, 275.6 109.41 C 321.13 125.37, 395.56 167.61, 419.55 179.26" fill="none" stroke="var(--neuro-bg-line-soft, rgba(120, 122, 132, 0.1))" stroke-width="0.73" stroke-linecap="round" stroke-linejoin="round" opacity="0.11" />
    <path d="M 365 235.75 C 381.5 237.47, 426.17 246.23, 464 246.09 C 501.83 245.95, 539.84 216.45, 592 234.93 C 644.16 253.4, 746.13 336.6, 776.95 356.94" fill="none" stroke="var(--neuro-bg-depth-secondary, rgba(126, 138, 164, 0.12))" stroke-width="1.22" stroke-linecap="round" stroke-linejoin="round" opacity="0.06" />
    <path d="M 371.6 199.95 C 387 210.17, 427.27 257.08, 464 261.29 C 500.73 265.51, 543.25 230.44, 592 225.26 C 640.75 220.07, 729.06 229.35, 756.47 230.17" fill="none" stroke="var(--neuro-bg-line-soft, rgba(120, 122, 132, 0.1))" stroke-width="1.21" stroke-linecap="round" stroke-linejoin="round" opacity="0.08" />
    <path d="M 365.59 227.14 C 381.99 213.97, 426.26 128.65, 464 148.08 C 501.74 167.51, 543.21 319.87, 592 343.74 C 640.79 367.61, 729.29 300.04, 756.75 291.3" fill="none" stroke="var(--neuro-bg-depth-secondary, rgba(126, 138, 164, 0.12))" stroke-width="1.16" stroke-linecap="round" stroke-linejoin="round" opacity="0.04" />
    <path d="M 351.62 201.06 C 370.35 190.56, 423.94 141.32, 464 138.06 C 504.06 134.8, 543.08 139.17, 592 181.5 C 640.92 223.83, 729.96 356.96, 757.55 392.05" fill="none" stroke="var(--neuro-bg-line, rgba(112, 104, 200, 0.2))" stroke-width="0.91" stroke-linecap="round" stroke-linejoin="round" opacity="0.07" />
    <path d="M 676.65 305.9 C 697.21 301.82, 753.04 273.36, 800 281.46 C 846.96 289.56, 899.9 352.22, 958.4 354.49 C 1016.9 356.76, 1118.91 304.97, 1151.01 295.07" fill="none" stroke="var(--neuro-bg-line, rgba(112, 104, 200, 0.2))" stroke-width="1.13" stroke-linecap="round" stroke-linejoin="round" opacity="0.15" />
    <path d="M 676.76 414.64 C 697.3 409.73, 753.06 385.41, 800 385.2 C 846.94 385, 896.8 406.8, 958.4 413.41 C 1020 420.01, 1134.41 422.93, 1169.61 424.84" fill="none" stroke="var(--neuro-bg-line-soft, rgba(120, 122, 132, 0.1))" stroke-width="1.16" stroke-linecap="round" stroke-linejoin="round" opacity="0.27" />
    <path d="M 1015.55 80 C 1025.02 106.6, 1073.04 180.7, 1072.35 239.6 C 1071.67 298.5, 1020.52 365, 1011.43 433.4 C 1002.34 501.8, 1016.74 613.9, 1017.81 650" fill="none" stroke="var(--neuro-bg-line-soft, rgba(120, 122, 132, 0.1))" stroke-width="1.03" stroke-linecap="round" stroke-linejoin="round" opacity="0.26" />
    <path d="M 791.98 80 C 796.32 106.6, 813.57 180.7, 818 239.6 C 822.43 298.5, 819.14 365, 818.58 433.4 C 818.02 501.8, 815.32 613.9, 814.67 650" fill="none" stroke="var(--neuro-bg-line-soft, rgba(120, 122, 132, 0.1))" stroke-width="1.07" stroke-linecap="round" stroke-linejoin="round" opacity="0.19" />
    <path d="M 682.04 477.27 C 701.7 478.71, 753.94 478.57, 800 485.87 C 846.06 493.17, 896.53 526.51, 958.4 521.07 C 1020.27 515.63, 1135.76 464.53, 1171.23 453.23" fill="none" stroke="var(--neuro-bg-depth-secondary, rgba(126, 138, 164, 0.12))" stroke-width="0.68" stroke-linecap="round" stroke-linejoin="round" opacity="0.1" />
    <path d="M 908.62 80 C 913.83 106.6, 939.05 180.7, 939.91 239.6 C 940.78 298.5, 917.93 365, 913.81 433.4 C 909.69 501.8, 914.98 613.9, 915.21 650" fill="none" stroke="var(--neuro-bg-line-soft, rgba(120, 122, 132, 0.1))" stroke-width="0.91" stroke-linecap="round" stroke-linejoin="round" opacity="0.26" />
    <path d="M 71.42 685.18 C 124.85 681.9, 279.64 666.26, 392 665.54 C 504.36 664.81, 622.28 680.07, 745.6 680.82 C 868.92 681.58, 1067.53 671.86, 1131.92 670.07" fill="none" stroke="var(--neuro-bg-line-soft, rgba(120, 122, 132, 0.1))" stroke-width="0.93" stroke-linecap="round" stroke-linejoin="round" opacity="0.05" />
    <path d="M 269.73 775.21 C 312.57 769.75, 441.33 743.2, 526.8 742.49 C 612.26 741.79, 700.36 765.1, 782.53 770.99 C 864.71 776.88, 980.29 776.7, 1019.84 777.84" fill="none" stroke="var(--neuro-bg-line-soft, rgba(120, 122, 132, 0.1))" stroke-width="1" stroke-linecap="round" stroke-linejoin="round" opacity="0.07" />
    <g opacity="0.1"><line x1="208.95" y1="241.51" x2="280.13" y2="235.32" stroke="var(--neuro-bg-depth-secondary, rgba(126, 138, 164, 0.12))" stroke-width="0.84" stroke-linecap="round" /><line x1="208.95" y1="241.51" x2="238.94" y2="178.47" stroke="var(--neuro-bg-line-soft, rgba(120, 122, 132, 0.1))" stroke-width="0.8" stroke-linecap="round" /><path d="M 221.76 240.39 C 224.85 238.35, 234.1 229.04, 240.27 228.15 C 246.44 227.25, 253.08 232.01, 258.78 235.03 C 264.47 238.06, 271.83 244.41, 274.44 246.29" fill="none" stroke="var(--neuro-bg-line, rgba(112, 104, 200, 0.2))" stroke-width="0.84" stroke-linecap="round" stroke-linejoin="round" opacity="0.72" /><line x1="223.75" y1="238.36" x2="229.75" y2="241.56" stroke="var(--neuro-bg-depth-secondary, rgba(126, 138, 164, 0.12))" stroke-width="0.72" stroke-linecap="round" /><line x1="241.54" y1="236.81" x2="247.54" y2="240.01" stroke="var(--neuro-bg-depth-secondary, rgba(126, 138, 164, 0.12))" stroke-width="0.72" stroke-linecap="round" /><line x1="259.34" y1="235.26" x2="265.34" y2="238.46" stroke="var(--neuro-bg-depth-secondary, rgba(126, 138, 164, 0.12))" stroke-width="0.72" stroke-linecap="round" /></g>
  </g>
  <g class="neuro-background__fragments neuro-background__grids">
    <g><rect x="382.49" y="62.05" width="8.94" height="10.12" rx="1.61" fill="var(--neuro-bg-grid-accent, rgba(112, 104, 200, 0.2))" opacity="0.09" /><rect x="395.43" y="61.44" width="8.94" height="10.12" rx="1.61" fill="var(--neuro-bg-grid, rgba(120, 122, 132, 0.1))" opacity="0.08" /><rect x="408.08" y="62.96" width="8.94" height="10.12" rx="1.61" fill="var(--neuro-bg-grid-accent, rgba(112, 104, 200, 0.2))" opacity="0.09" /><rect x="368.86" y="77.37" width="8.94" height="10.12" rx="1.61" fill="var(--neuro-bg-grid, rgba(120, 122, 132, 0.1))" opacity="0.08" /><rect x="383.62" y="76.43" width="8.94" height="10.12" rx="1.61" fill="var(--neuro-bg-depth-secondary, rgba(126, 138, 164, 0.12))" opacity="0.1" /><rect x="394.98" y="75.59" width="8.94" height="10.12" rx="1.61" fill="var(--neuro-bg-grid-accent, rgba(112, 104, 200, 0.2))" opacity="0.05" /><rect x="408.15" y="77.11" width="8.94" height="10.12" rx="1.61" fill="var(--neuro-bg-grid-accent, rgba(112, 104, 200, 0.2))" opacity="0.08" /><rect x="370.16" y="90.63" width="8.94" height="10.12" rx="1.61" fill="var(--neuro-bg-depth-secondary, rgba(126, 138, 164, 0.12))" opacity="0.08" /><rect x="383.64" y="90.97" width="8.94" height="10.12" rx="1.61" fill="var(--neuro-bg-depth-secondary, rgba(126, 138, 164, 0.12))" opacity="0.08" /><rect x="407.91" y="89.6" width="8.94" height="10.12" rx="1.61" fill="var(--neuro-bg-dot-accent, rgba(81, 70, 166, 0.42))" opacity="0.09" /><rect x="382.55" y="104.72" width="8.94" height="10.12" rx="1.61" fill="var(--neuro-bg-grid, rgba(120, 122, 132, 0.1))" opacity="0.06" /><rect x="395.13" y="103.2" width="8.94" height="10.12" rx="1.61" fill="var(--neuro-bg-grid, rgba(120, 122, 132, 0.1))" opacity="0.07" /><rect x="410.22" y="105.11" width="8.94" height="10.12" rx="1.61" fill="var(--neuro-bg-grid-accent, rgba(112, 104, 200, 0.2))" opacity="0.03" /><rect x="369.25" y="118.29" width="8.94" height="10.12" rx="1.61" fill="var(--neuro-bg-grid, rgba(120, 122, 132, 0.1))" opacity="0.05" /><rect x="381.97" y="118.8" width="8.94" height="10.12" rx="1.61" fill="var(--neuro-bg-grid-accent, rgba(112, 104, 200, 0.2))" opacity="0.04" /></g>
    <g><rect x="1092.44" y="477.17" width="7.18" height="6.64" rx="1.29" fill="var(--neuro-bg-depth-secondary, rgba(126, 138, 164, 0.12))" opacity="0.2" /><rect x="1115.92" y="475.75" width="7.18" height="6.64" rx="1.29" fill="var(--neuro-bg-grid-accent, rgba(112, 104, 200, 0.2))" opacity="0.15" /><rect x="1126.39" y="475.25" width="7.18" height="6.64" rx="1.29" fill="var(--neuro-bg-grid-accent, rgba(112, 104, 200, 0.2))" opacity="0.13" /><rect x="1151.64" y="477.21" width="7.18" height="6.64" rx="1.29" fill="var(--neuro-bg-grid-accent, rgba(112, 104, 200, 0.2))" opacity="0.21" /><rect x="1091.15" y="486.3" width="7.18" height="6.64" rx="1.29" fill="var(--neuro-bg-grid, rgba(120, 122, 132, 0.1))" opacity="0.13" /><rect x="1103.08" y="486.54" width="7.18" height="6.64" rx="1.29" fill="var(--neuro-bg-grid, rgba(120, 122, 132, 0.1))" opacity="0.15" /><rect x="1116.28" y="487.69" width="7.18" height="6.64" rx="1.29" fill="var(--neuro-bg-grid, rgba(120, 122, 132, 0.1))" opacity="0.24" /><rect x="1127.64" y="485.88" width="7.18" height="6.64" rx="1.29" fill="var(--neuro-bg-depth-secondary, rgba(126, 138, 164, 0.12))" opacity="0.16" /><rect x="1138.51" y="486.97" width="7.18" height="6.64" rx="1.29" fill="var(--neuro-bg-depth-secondary, rgba(126, 138, 164, 0.12))" opacity="0.2" /><rect x="1151.04" y="486.4" width="7.18" height="6.64" rx="1.29" fill="var(--neuro-bg-depth-secondary, rgba(126, 138, 164, 0.12))" opacity="0.22" /><rect x="1091.33" y="498.05" width="7.18" height="6.64" rx="1.29" fill="var(--neuro-bg-grid-accent, rgba(112, 104, 200, 0.2))" opacity="0.08" /><rect x="1116.82" y="496.55" width="7.18" height="6.64" rx="1.29" fill="var(--neuro-bg-depth-secondary, rgba(126, 138, 164, 0.12))" opacity="0.12" /><rect x="1126.39" y="496.52" width="7.18" height="6.64" rx="1.29" fill="var(--neuro-bg-depth-secondary, rgba(126, 138, 164, 0.12))" opacity="0.1" /><rect x="1139.38" y="496.73" width="7.18" height="6.64" rx="1.29" fill="var(--neuro-bg-grid-accent, rgba(112, 104, 200, 0.2))" opacity="0.11" /><rect x="1150.6" y="496.95" width="7.18" height="6.64" rx="1.29" fill="var(--neuro-bg-grid, rgba(120, 122, 132, 0.1))" opacity="0.1" /><rect x="1103.09" y="508.89" width="7.18" height="6.64" rx="1.29" fill="var(--neuro-bg-grid, rgba(120, 122, 132, 0.1))" opacity="0.1" /><rect x="1115.58" y="507.35" width="7.18" height="6.64" rx="1.29" fill="var(--neuro-bg-grid, rgba(120, 122, 132, 0.1))" opacity="0.21" /><rect x="1127.16" y="507.79" width="7.18" height="6.64" rx="1.29" fill="var(--neuro-bg-grid-accent, rgba(112, 104, 200, 0.2))" opacity="0.2" /><rect x="1139.56" y="508.3" width="7.18" height="6.64" rx="1.29" fill="var(--neuro-bg-grid, rgba(120, 122, 132, 0.1))" opacity="0.07" /><rect x="1149.93" y="508.99" width="7.18" height="6.64" rx="1.29" fill="var(--neuro-bg-grid, rgba(120, 122, 132, 0.1))" opacity="0.2" /></g>
    <g><rect x="929.09" y="799.89" width="7.21" height="7.97" rx="1.3" fill="var(--neuro-bg-dot-accent, rgba(81, 70, 166, 0.42))" opacity="0.09" /><rect x="942.43" y="800.05" width="7.21" height="7.97" rx="1.3" fill="var(--neuro-bg-grid-accent, rgba(112, 104, 200, 0.2))" opacity="0.04" /><rect x="956.16" y="799.11" width="7.21" height="7.97" rx="1.3" fill="var(--neuro-bg-grid-accent, rgba(112, 104, 200, 0.2))" opacity="0.02" /><rect x="967.65" y="798.74" width="7.21" height="7.97" rx="1.3" fill="var(--neuro-bg-grid, rgba(120, 122, 132, 0.1))" opacity="0.03" /><rect x="941.86" y="811.73" width="7.21" height="7.97" rx="1.3" fill="var(--neuro-bg-grid, rgba(120, 122, 132, 0.1))" opacity="0.03" /><rect x="955.06" y="811.61" width="7.21" height="7.97" rx="1.3" fill="var(--neuro-bg-depth-secondary, rgba(126, 138, 164, 0.12))" opacity="0.07" /><rect x="943.24" y="825.38" width="7.21" height="7.97" rx="1.3" fill="var(--neuro-bg-grid-accent, rgba(112, 104, 200, 0.2))" opacity="0.08" /><rect x="955.15" y="824.79" width="7.21" height="7.97" rx="1.3" fill="var(--neuro-bg-grid-accent, rgba(112, 104, 200, 0.2))" opacity="0.02" /><rect x="968.94" y="823.92" width="7.21" height="7.97" rx="1.3" fill="var(--neuro-bg-dot, rgba(72, 105, 170, 0.28))" opacity="0.05" /><rect x="954.76" y="837.97" width="7.21" height="7.97" rx="1.3" fill="var(--neuro-bg-grid, rgba(120, 122, 132, 0.1))" opacity="0.02" /><rect x="968.67" y="838.03" width="7.21" height="7.97" rx="1.3" fill="var(--neuro-bg-grid-accent, rgba(112, 104, 200, 0.2))" opacity="0.06" /><rect x="928.8" y="848.96" width="7.21" height="7.97" rx="1.3" fill="var(--neuro-bg-grid-accent, rgba(112, 104, 200, 0.2))" opacity="0.06" /><rect x="942.48" y="851.23" width="7.21" height="7.97" rx="1.3" fill="var(--neuro-bg-grid, rgba(120, 122, 132, 0.1))" opacity="0.07" /><rect x="954.48" y="849.37" width="7.21" height="7.97" rx="1.3" fill="var(--neuro-bg-grid, rgba(120, 122, 132, 0.1))" opacity="0.07" /><rect x="967.19" y="850.99" width="7.21" height="7.97" rx="1.3" fill="var(--neuro-bg-grid, rgba(120, 122, 132, 0.1))" opacity="0.02" /></g>
    <rect x="222.23" y="128.08" width="14.64" height="4.2" rx="1.26" fill="var(--neuro-bg-depth, rgba(17, 17, 17, 0.08))" opacity="0.07" transform="rotate(-15.15 229.55 130.19)" />
    <rect x="196.38" y="68.86" width="11.34" height="7.34" rx="2.2" fill="var(--neuro-bg-grid, rgba(120, 122, 132, 0.1))" opacity="0.08" transform="rotate(-7.64 202.05 72.53)" />
    <rect x="253.93" y="210.46" width="8.31" height="7.18" rx="2.16" fill="var(--neuro-bg-line-soft, rgba(120, 122, 132, 0.1))" opacity="0.09" transform="rotate(2.1 258.09 214.06)" />
    <rect x="207.08" y="80.29" width="12.4" height="8.83" rx="2.65" fill="var(--neuro-bg-grid, rgba(120, 122, 132, 0.1))" opacity="0.03" transform="rotate(8.02 213.28 84.7)" />
    <rect x="145.08" y="230.41" width="12.41" height="5.4" rx="1.62" fill="var(--neuro-bg-depth-secondary, rgba(126, 138, 164, 0.12))" opacity="0.04" transform="rotate(7.17 151.28 233.11)" />
    <rect x="65.62" y="129.48" width="15.8" height="6.4" rx="1.92" fill="var(--neuro-bg-line-soft, rgba(120, 122, 132, 0.1))" opacity="0.04" transform="rotate(3.45 73.51 132.68)" />
    <rect x="332.78" y="95.55" width="17.43" height="8.89" rx="2.67" fill="var(--neuro-bg-depth, rgba(17, 17, 17, 0.08))" opacity="0.08" transform="rotate(4.72 341.49 100)" />
    <rect x="168.3" y="82.6" width="13.4" height="6.26" rx="1.88" fill="var(--neuro-bg-depth, rgba(17, 17, 17, 0.08))" opacity="0.06" transform="rotate(3.35 175 85.73)" />
    <rect x="1132.9" y="501.45" width="10.52" height="6.9" rx="2.07" fill="var(--neuro-bg-depth, rgba(17, 17, 17, 0.08))" opacity="0.07" transform="rotate(-15.81 1138.16 504.9)" />
    <rect x="930.53" y="262.92" width="12.16" height="7.68" rx="2.3" fill="var(--neuro-bg-depth, rgba(17, 17, 17, 0.08))" opacity="0.1" transform="rotate(5.18 936.61 266.76)" />
    <rect x="1103.28" y="536.97" width="11.48" height="7.91" rx="2.37" fill="var(--neuro-bg-grid, rgba(120, 122, 132, 0.1))" opacity="0.13" transform="rotate(-7.45 1109.01 540.93)" />
    <rect x="872.21" y="266.4" width="21.36" height="7.9" rx="2.37" fill="var(--neuro-bg-grid, rgba(120, 122, 132, 0.1))" opacity="0.07" transform="rotate(4.54 882.89 270.35)" />
    <rect x="1084.65" y="140.86" width="11.39" height="7.58" rx="2.27" fill="var(--neuro-bg-depth, rgba(17, 17, 17, 0.08))" opacity="0.08" transform="rotate(-10.66 1090.35 144.65)" />
    <rect x="1058.81" y="197.23" width="9.08" height="3.95" rx="1.18" fill="var(--neuro-bg-depth, rgba(17, 17, 17, 0.08))" opacity="0.08" transform="rotate(13.92 1063.35 199.2)" />
  </g>
  <g class="neuro-background__trajectory">
    <path d="M 516 446 C 532.03 440.1, 576.06 418.2, 612.19 410.6 C 648.32 402.99, 692.75 412.93, 732.77 400.35 C 772.79 387.78, 812.66 356.77, 852.3 335.13 C 891.93 313.48, 931.96 293.34, 970.58 270.49 C 1009.2 247.63, 1065.1 210.08, 1084 198" fill="none" stroke="var(--neuro-bg-trajectory, rgba(81, 70, 166, 0.34))" stroke-width="1.86" stroke-linecap="round" stroke-linejoin="round" opacity="0.94" />
    <g class="neuro-background__nodes"><circle cx="612.19" cy="410.6" r="4.39" fill="var(--neuro-bg-trajectory, rgba(81, 70, 166, 0.34))" opacity="0.48" /><circle cx="732.77" cy="400.35" r="3.57" fill="var(--neuro-bg-node, rgba(72, 105, 170, 0.28))" opacity="0.32" /><circle cx="970.58" cy="270.49" r="3.72" fill="var(--neuro-bg-node, rgba(72, 105, 170, 0.28))" opacity="0.43" /><circle cx="1084" cy="198" r="3.69" fill="var(--neuro-bg-trajectory, rgba(81, 70, 166, 0.34))" opacity="0.45" /></g>
  </g>
  <g class="neuro-background__cloud neuro-background__dots">
    <circle cx="202.33" cy="138.59" r="1.34" fill="var(--neuro-bg-dot-soft, rgba(80, 82, 92, 0.16))" opacity="0.04" />
    <circle cx="299.35" cy="208.23" r="1.04" fill="var(--neuro-bg-dot-soft, rgba(80, 82, 92, 0.16))" opacity="0.08" />
    <circle cx="113.48" cy="148.16" r="1.3" fill="var(--neuro-bg-dot-soft, rgba(80, 82, 92, 0.16))" opacity="0.05" />
    <circle cx="268.57" cy="218.14" r="1.2" fill="var(--neuro-bg-depth-secondary, rgba(126, 138, 164, 0.12))" opacity="0.08" />
    <circle cx="134.08" cy="135.11" r="1.28" fill="var(--neuro-bg-depth-secondary, rgba(126, 138, 164, 0.12))" opacity="0.04" />
    <circle cx="277.76" cy="205.21" r="0.8" fill="var(--neuro-bg-dot-accent, rgba(81, 70, 166, 0.42))" opacity="0.07" />
    <circle cx="104.29" cy="153.49" r="0.93" fill="var(--neuro-bg-dot-soft, rgba(80, 82, 92, 0.16))" opacity="0.04" />
    <circle cx="258.28" cy="218.63" r="1.38" fill="var(--neuro-bg-dot, rgba(72, 105, 170, 0.28))" opacity="0.07" />
    <circle cx="105.16" cy="164.22" r="0.61" fill="var(--neuro-bg-dot-soft, rgba(80, 82, 92, 0.16))" opacity="0.06" />
    <circle cx="304.27" cy="226.55" r="1.3" fill="var(--neuro-bg-dot, rgba(72, 105, 170, 0.28))" opacity="0.09" />
    <circle cx="125.58" cy="171.82" r="1.69" fill="var(--neuro-bg-depth-secondary, rgba(126, 138, 164, 0.12))" opacity="0.04" />
    <circle cx="242.3" cy="216.63" r="1.08" fill="var(--neuro-bg-depth-secondary, rgba(126, 138, 164, 0.12))" opacity="0.08" />
    <circle cx="105.57" cy="145.84" r="1.13" fill="var(--neuro-bg-dot-soft, rgba(80, 82, 92, 0.16))" opacity="0.04" />
    <circle cx="312.74" cy="215.48" r="0.66" fill="var(--neuro-bg-dot-soft, rgba(80, 82, 92, 0.16))" opacity="0.07" />
    <circle cx="158.13" cy="143.84" r="1.15" fill="var(--neuro-bg-depth-secondary, rgba(126, 138, 164, 0.12))" opacity="0.07" />
    <circle cx="266.06" cy="168.52" r="1.44" fill="var(--neuro-bg-depth-secondary, rgba(126, 138, 164, 0.12))" opacity="0.11" />
    <circle cx="136.17" cy="158.32" r="1.34" fill="var(--neuro-bg-depth-secondary, rgba(126, 138, 164, 0.12))" opacity="0.08" />
    <circle cx="291.99" cy="192.94" r="1.57" fill="var(--neuro-bg-dot-soft, rgba(80, 82, 92, 0.16))" opacity="0.1" />
    <circle cx="587.64" cy="434.3" r="0.99" fill="var(--neuro-white-soft, rgba(255, 255, 255, 0.1))" opacity="0.15" />
    <circle cx="585.36" cy="443.96" r="1.06" fill="var(--neuro-bg-dot-soft, rgba(80, 82, 92, 0.16))" opacity="0.05" />
    <circle cx="620.93" cy="393.66" r="0.72" fill="var(--neuro-bg-dot, rgba(72, 105, 170, 0.28))" opacity="0.13" />
    <circle cx="722.7" cy="399.84" r="1.17" fill="var(--neuro-bg-dot-accent, rgba(81, 70, 166, 0.42))" opacity="0.12" />
    <circle cx="584.15" cy="374.34" r="0.67" fill="var(--neuro-bg-dot-soft, rgba(80, 82, 92, 0.16))" opacity="0.07" />
    <circle cx="630.07" cy="391.42" r="1.22" fill="var(--neuro-bg-dot-accent, rgba(81, 70, 166, 0.42))" opacity="0.1" />
    <circle cx="628.03" cy="243.33" r="1.47" fill="var(--neuro-bg-dot-accent, rgba(81, 70, 166, 0.42))" opacity="0.11" />
    <circle cx="607.6" cy="467.86" r="0.8" fill="var(--neuro-bg-dot-soft, rgba(80, 82, 92, 0.16))" opacity="0.04" />
    <circle cx="587.76" cy="425.75" r="1.24" fill="var(--neuro-white-soft, rgba(255, 255, 255, 0.1))" opacity="0.06" />
    <circle cx="584.86" cy="384.76" r="1.49" fill="var(--neuro-bg-depth-secondary, rgba(126, 138, 164, 0.12))" opacity="0.07" />
    <circle cx="590.98" cy="495.35" r="1.11" fill="var(--neuro-bg-depth-secondary, rgba(126, 138, 164, 0.12))" opacity="0.1" />
    <circle cx="585.58" cy="429.13" r="1.49" fill="var(--neuro-bg-dot-soft, rgba(80, 82, 92, 0.16))" opacity="0.05" />
    <circle cx="610.32" cy="332.78" r="0.98" fill="var(--neuro-bg-dot-accent, rgba(81, 70, 166, 0.42))" opacity="0.06" />
    <circle cx="584.27" cy="455.4" r="0.99" fill="var(--neuro-bg-dot-soft, rgba(80, 82, 92, 0.16))" opacity="0.12" />
    <circle cx="608.43" cy="448.21" r="1.12" fill="var(--neuro-bg-dot, rgba(72, 105, 170, 0.28))" opacity="0.11" />
    <circle cx="580.85" cy="422.97" r="0.69" fill="var(--neuro-bg-dot-soft, rgba(80, 82, 92, 0.16))" opacity="0.11" />
    <circle cx="597.85" cy="408.36" r="1.62" fill="var(--neuro-bg-dot, rgba(72, 105, 170, 0.28))" opacity="0.13" />
    <circle cx="604.13" cy="444.23" r="0.9" fill="var(--neuro-bg-depth-secondary, rgba(126, 138, 164, 0.12))" opacity="0.07" />
    <circle cx="597.26" cy="380.13" r="1.58" fill="var(--neuro-bg-dot, rgba(72, 105, 170, 0.28))" opacity="0.09" />
    <circle cx="582.2" cy="510.58" r="1.7" fill="var(--neuro-bg-dot-soft, rgba(80, 82, 92, 0.16))" opacity="0.07" />
    <circle cx="631.28" cy="391.96" r="1.2" fill="var(--neuro-bg-dot-soft, rgba(80, 82, 92, 0.16))" opacity="0.05" />
    <circle cx="593.48" cy="387.98" r="1.51" fill="var(--neuro-bg-dot, rgba(72, 105, 170, 0.28))" opacity="0.06" />
    <circle cx="750.61" cy="395.55" r="0.96" fill="var(--neuro-bg-dot-soft, rgba(80, 82, 92, 0.16))" opacity="0.3" />
    <circle cx="891.97" cy="287.98" r="1.4" fill="var(--neuro-white-soft, rgba(255, 255, 255, 0.1))" opacity="0.21" />
    <circle cx="1004.42" cy="287.21" r="1.49" fill="var(--neuro-white-soft, rgba(255, 255, 255, 0.1))" opacity="0.34" />
    <circle cx="1081.07" cy="209.21" r="1.28" fill="var(--neuro-bg-dot-accent, rgba(81, 70, 166, 0.42))" opacity="0.26" />
    <circle cx="741.06" cy="452.13" r="0.91" fill="var(--neuro-bg-dot-accent, rgba(81, 70, 166, 0.42))" opacity="0.17" />
    <circle cx="992.56" cy="255.94" r="1.78" fill="var(--neuro-bg-dot-soft, rgba(80, 82, 92, 0.16))" opacity="0.28" />
    <circle cx="976.88" cy="277.58" r="1.01" fill="var(--neuro-bg-depth-secondary, rgba(126, 138, 164, 0.12))" opacity="0.34" />
    <circle cx="1093.54" cy="229.67" r="1.02" fill="var(--neuro-bg-dot-soft, rgba(80, 82, 92, 0.16))" opacity="0.28" />
    <circle cx="785.96" cy="356.82" r="0.65" fill="var(--neuro-bg-dot-soft, rgba(80, 82, 92, 0.16))" opacity="0.31" />
    <circle cx="945.93" cy="258.93" r="1.66" fill="var(--neuro-bg-dot, rgba(72, 105, 170, 0.28))" opacity="0.2" />
    <circle cx="1012.93" cy="308.24" r="1.55" fill="var(--neuro-bg-dot-soft, rgba(80, 82, 92, 0.16))" opacity="0.09" />
    <circle cx="1064.52" cy="276.64" r="1.07" fill="var(--neuro-white-soft, rgba(255, 255, 255, 0.1))" opacity="0.21" />
    <circle cx="768.53" cy="422.86" r="1.22" fill="var(--neuro-white-soft, rgba(255, 255, 255, 0.1))" opacity="0.33" />
    <circle cx="972.7" cy="288.15" r="1.48" fill="var(--neuro-bg-dot, rgba(72, 105, 170, 0.28))" opacity="0.23" />
    <circle cx="960.24" cy="297.93" r="0.65" fill="var(--neuro-white-soft, rgba(255, 255, 255, 0.1))" opacity="0.17" />
    <circle cx="1083.57" cy="167.99" r="1.25" fill="var(--neuro-bg-dot-soft, rgba(80, 82, 92, 0.16))" opacity="0.17" />
    <circle cx="706.25" cy="399.13" r="1.7" fill="var(--neuro-bg-dot, rgba(72, 105, 170, 0.28))" opacity="0.11" />
    <circle cx="1006.54" cy="323.44" r="1.52" fill="var(--neuro-white-soft, rgba(255, 255, 255, 0.1))" opacity="0.13" />
    <circle cx="901.63" cy="330.27" r="1.11" fill="var(--neuro-white-soft, rgba(255, 255, 255, 0.1))" opacity="0.12" />
    <circle cx="1105.68" cy="211.53" r="0.83" fill="var(--neuro-bg-dot-soft, rgba(80, 82, 92, 0.16))" opacity="0.25" />
    <circle cx="680" cy="354.84" r="1.5" fill="var(--neuro-bg-dot-accent, rgba(81, 70, 166, 0.42))" opacity="0.32" />
    <circle cx="915.8" cy="326.38" r="1.47" fill="var(--neuro-bg-dot-accent, rgba(81, 70, 166, 0.42))" opacity="0.11" />
    <circle cx="918.59" cy="235.18" r="1.58" fill="var(--neuro-bg-dot-accent, rgba(81, 70, 166, 0.42))" opacity="0.31" />
    <circle cx="1103.9" cy="171.45" r="0.74" fill="var(--neuro-bg-dot-accent, rgba(81, 70, 166, 0.42))" opacity="0.14" />
    <circle cx="691.83" cy="372.09" r="0.79" fill="var(--neuro-bg-dot-soft, rgba(80, 82, 92, 0.16))" opacity="0.34" />
    <circle cx="984.14" cy="271.88" r="1.14" fill="var(--neuro-bg-dot-accent, rgba(81, 70, 166, 0.42))" opacity="0.14" />
    <circle cx="961.48" cy="262.34" r="1.68" fill="var(--neuro-bg-depth-secondary, rgba(126, 138, 164, 0.12))" opacity="0.32" />
    <circle cx="1135.55" cy="182.64" r="0.84" fill="var(--neuro-bg-dot, rgba(72, 105, 170, 0.28))" opacity="0.22" />
    <circle cx="703.11" cy="389.75" r="0.91" fill="var(--neuro-bg-dot-soft, rgba(80, 82, 92, 0.16))" opacity="0.2" />
    <circle cx="1010.83" cy="298.46" r="1.35" fill="var(--neuro-bg-dot-soft, rgba(80, 82, 92, 0.16))" opacity="0.28" />
    <circle cx="1000.13" cy="258.78" r="1.09" fill="var(--neuro-white-soft, rgba(255, 255, 255, 0.1))" opacity="0.24" />
    <circle cx="1069.61" cy="149.06" r="0.79" fill="var(--neuro-bg-dot, rgba(72, 105, 170, 0.28))" opacity="0.22" />
    <circle cx="749.77" cy="420.13" r="1.15" fill="var(--neuro-bg-depth-secondary, rgba(126, 138, 164, 0.12))" opacity="0.17" />
    <circle cx="1028.13" cy="285.29" r="1.64" fill="var(--neuro-bg-depth-secondary, rgba(126, 138, 164, 0.12))" opacity="0.33" />
    <circle cx="951.16" cy="258.85" r="1.1" fill="var(--neuro-bg-dot, rgba(72, 105, 170, 0.28))" opacity="0.12" />
    <circle cx="1000.48" cy="195.18" r="1.72" fill="var(--neuro-bg-dot, rgba(72, 105, 170, 0.28))" opacity="0.26" />
    <circle cx="755.02" cy="445.5" r="1.42" fill="var(--neuro-bg-dot, rgba(72, 105, 170, 0.28))" opacity="0.14" />
    <circle cx="1031.33" cy="274.53" r="0.72" fill="var(--neuro-bg-dot, rgba(72, 105, 170, 0.28))" opacity="0.16" />
    <circle cx="947.16" cy="315.24" r="1.27" fill="var(--neuro-bg-depth-secondary, rgba(126, 138, 164, 0.12))" opacity="0.32" />
    <circle cx="1080.1" cy="231.32" r="0.65" fill="var(--neuro-bg-dot-soft, rgba(80, 82, 92, 0.16))" opacity="0.19" />
    <circle cx="756.24" cy="395.69" r="1.61" fill="var(--neuro-bg-dot-accent, rgba(81, 70, 166, 0.42))" opacity="0.19" />
    <circle cx="998.38" cy="342.24" r="0.87" fill="var(--neuro-bg-dot-accent, rgba(81, 70, 166, 0.42))" opacity="0.31" />
    <circle cx="974.83" cy="322.32" r="0.98" fill="var(--neuro-bg-dot, rgba(72, 105, 170, 0.28))" opacity="0.1" />
    <circle cx="1054.5" cy="196.72" r="1.26" fill="var(--neuro-bg-dot-soft, rgba(80, 82, 92, 0.16))" opacity="0.14" />
    <circle cx="756.63" cy="401.93" r="1.74" fill="var(--neuro-bg-dot, rgba(72, 105, 170, 0.28))" opacity="0.15" />
    <circle cx="958.2" cy="310.59" r="0.94" fill="var(--neuro-bg-dot-soft, rgba(80, 82, 92, 0.16))" opacity="0.34" />
    <circle cx="875.58" cy="779.65" r="1.59" fill="var(--neuro-bg-dot-accent, rgba(81, 70, 166, 0.42))" opacity="0.05" />
    <circle cx="893.8" cy="810.05" r="1.34" fill="var(--neuro-bg-depth-secondary, rgba(126, 138, 164, 0.12))" opacity="0.05" />
    <circle cx="842.81" cy="759.64" r="1.62" fill="var(--neuro-bg-dot, rgba(72, 105, 170, 0.28))" opacity="0.09" />
    <circle cx="1075.68" cy="814.56" r="1.09" fill="var(--neuro-bg-dot, rgba(72, 105, 170, 0.28))" opacity="0.03" />
    <circle cx="830.2" cy="770.23" r="1.63" fill="var(--neuro-bg-dot-soft, rgba(80, 82, 92, 0.16))" opacity="0.08" />
    <circle cx="987.51" cy="807.09" r="1.64" fill="var(--neuro-bg-dot, rgba(72, 105, 170, 0.28))" opacity="0.1" />
    <circle cx="781.75" cy="734.66" r="1.7" fill="var(--neuro-bg-dot-accent, rgba(81, 70, 166, 0.42))" opacity="0.09" />
    <circle cx="1009.73" cy="775.32" r="1.04" fill="var(--neuro-bg-dot-soft, rgba(80, 82, 92, 0.16))" opacity="0.07" />
  </g>
</svg>
