<?xml version="1.0" encoding="UTF-8"?>
<svg xmlns="http://www.w3.org/2000/svg" viewBox="0 0 1200 900" width="1200" height="900" preserveAspectRatio="xMidYMid slice" aria-hidden="true" role="presentation">
  <!-- Zone system: left_title -> central_bridge -> right_anchor -> lower_echo -->
  <g class="neuro-background__field neuro-background__contours">
    <path d="M 41.01 50.33 C 58.32 45.6, 105.13 19.59, 144.88 21.97 C 184.63 24.35, 232.77 59.27, 279.52 64.62 C 326.27 69.96, 401.05 55.8, 425.35 54.03" fill="none" stroke="var(--neuro-bg-line-soft, rgba(120, 122, 132, 0.1))" stroke-width="0.71" stroke-linecap="round" stroke-linejoin="round" opacity="0.09" />
    <path d="M 39.78 97.21 C 57.3 91.23, 104.92 64.75, 144.88 61.34 C 184.84 57.92, 231.03 73.71, 279.52 76.74 C 328.01 79.77, 409.75 79.05, 435.8 79.51" fill="none" stroke="var(--neuro-bg-line-soft, rgba(120, 122, 132, 0.1))" stroke-width="0.94" stroke-linecap="round" stroke-linejoin="round" opacity="0.05" />
    <path d="M 564.54 523.24 C 577.02 524.28, 612.9 527.79, 639.44 529.44 C 665.98 531.1, 694.42 532.58, 723.76 533.19 C 753.1 533.8, 800.2 533.12, 815.49 533.11" fill="none" stroke="var(--neuro-bg-line-soft, rgba(120, 122, 132, 0.1))" stroke-width="0.97" stroke-linecap="round" stroke-linejoin="round" opacity="0.09" />
    <path d="M 580.27 219.88 C 590.13 216.95, 615.52 205.55, 639.44 202.35 C 663.36 199.15, 693.64 197.01, 723.76 200.67 C 753.88 204.34, 804.11 220.41, 820.18 224.36" fill="none" stroke="var(--neuro-bg-line-soft, rgba(120, 122, 132, 0.1))" stroke-width="0.96" stroke-linecap="round" stroke-linejoin="round" opacity="0.13" />
    <path d="M 564 333.86 C 576.57 327.86, 612.81 299.2, 639.44 297.86 C 666.07 296.52, 693.46 319.34, 723.76 325.83 C 754.06 332.32, 804.99 334.98, 821.24 336.8" fill="none" stroke="var(--neuro-bg-line-soft, rgba(120, 122, 132, 0.1))" stroke-width="0.91" stroke-linecap="round" stroke-linejoin="round" opacity="0.06" />
    <path d="M 1019.11 54 C 1023.46 84.89, 1043.66 170.95, 1045.24 239.36 C 1046.81 307.77, 1031.6 385, 1028.53 464.44 C 1025.47 543.88, 1027.13 674.07, 1026.85 716" fill="none" stroke="var(--neuro-bg-line-soft, rgba(120, 122, 132, 0.1))" stroke-width="0.94" stroke-linecap="round" stroke-linejoin="round" opacity="0.27" />
    <path d="M 760.38 117.55 C 779.45 111.72, 832.5 83.7, 874.8 82.56 C 917.1 81.42, 967.49 108.02, 1014.2 110.71 C 1060.91 113.39, 1131.6 100.69, 1155.08 98.69" fill="none" stroke="var(--neuro-bg-line, rgba(81, 70, 166, 0.12))" stroke-width="0.91" stroke-linecap="round" stroke-linejoin="round" opacity="0.25" />
    <path d="M 766.76 163.39 C 784.77 157.61, 833.56 131.69, 874.8 128.72 C 916.04 125.74, 963.49 141.2, 1014.2 145.51 C 1064.91 149.83, 1151.6 153.1, 1179.08 154.62" fill="none" stroke="var(--neuro-bg-line-soft, rgba(120, 122, 132, 0.1))" stroke-width="0.97" stroke-linecap="round" stroke-linejoin="round" opacity="0.23" />
    <path d="M 1003.01 54 C 1006.65 84.89, 1023.87 170.95, 1024.87 239.36 C 1025.87 307.77, 1014.17 385, 1009 464.44 C 1003.83 543.88, 996.38 674.07, 993.85 716" fill="none" stroke="var(--neuro-bg-line-soft, rgba(120, 122, 132, 0.1))" stroke-width="1.12" stroke-linecap="round" stroke-linejoin="round" opacity="0.1" />
    <path d="M 775.13 74.59 C 791.74 78.66, 834.95 102.15, 874.8 99 C 914.65 95.85, 965.83 60.18, 1014.2 55.69 C 1062.57 51.21, 1139.89 69.35, 1165.03 72.09" fill="none" stroke="var(--neuro-bg-line, rgba(81, 70, 166, 0.12))" stroke-width="1.04" stroke-linecap="round" stroke-linejoin="round" opacity="0.3" />
    <path d="M 772.66 550.36 C 789.69 551.13, 834.54 555.55, 874.8 555.01 C 915.06 554.46, 967.48 545.62, 1014.2 547.1 C 1060.92 548.58, 1131.62 561.08, 1155.11 563.88" fill="none" stroke="var(--neuro-bg-line-soft, rgba(120, 122, 132, 0.1))" stroke-width="1.11" stroke-linecap="round" stroke-linejoin="round" opacity="0.23" />
    <path d="M 88.02 743.03 C 130.94 744.74, 249.68 757.21, 345.52 753.28 C 441.36 749.36, 552.38 720.99, 663.08 719.46 C 773.78 717.94, 951.92 740.03, 1009.69 744.14" fill="none" stroke="var(--neuro-bg-line-soft, rgba(120, 122, 132, 0.1))" stroke-width="1.02" stroke-linecap="round" stroke-linejoin="round" opacity="0.03" />
    <g opacity="0.06"><line x1="392.57" y1="60.29" x2="484.26" y2="57.37" stroke="var(--neuro-bg-depth-secondary, rgba(126, 138, 164, 0.12))" stroke-width="0.84" stroke-linecap="round" /><line x1="392.57" y1="60.29" x2="419.28" y2="6.25" stroke="var(--neuro-bg-line-soft, rgba(120, 122, 132, 0.1))" stroke-width="0.78" stroke-linecap="round" /><line x1="420.14" y1="57.92" x2="426.14" y2="60.72" stroke="var(--neuro-bg-depth-secondary, rgba(126, 138, 164, 0.12))" stroke-width="0.7" stroke-linecap="round" /><line x1="450.7" y1="56.95" x2="456.7" y2="59.75" stroke="var(--neuro-bg-depth-secondary, rgba(126, 138, 164, 0.12))" stroke-width="0.7" stroke-linecap="round" /></g>
  </g>
  <g class="neuro-background__fragments neuro-background__grids">
    <g opacity="0.05"><rect x="324.53" y="109.99" width="7.19" height="7.19" rx="1.58" fill="var(--neuro-bg-grid-accent, rgba(112, 104, 200, 0.2))" /><rect x="370.59" y="112.21" width="6.32" height="6.32" rx="1.39" fill="var(--neuro-bg-grid, rgba(120, 122, 132, 0.1))" /><rect x="385.52" y="111.87" width="5.34" height="5.34" rx="1.17" fill="var(--neuro-bg-grid, rgba(120, 122, 132, 0.1))" /><rect x="327.18" y="123.94" width="5.3" height="5.3" rx="1.17" fill="var(--neuro-bg-grid, rgba(120, 122, 132, 0.1))" /><rect x="369.17" y="122.82" width="4.94" height="4.94" rx="1.09" fill="var(--neuro-bg-grid-accent, rgba(112, 104, 200, 0.2))" /><rect x="383.46" y="121.64" width="4.88" height="4.88" rx="1.07" fill="var(--neuro-bg-grid, rgba(120, 122, 132, 0.1))" /></g>
    <g opacity="0.24"><rect x="1026.72" y="104.83" width="7.13" height="7.13" rx="1.57" fill="var(--neuro-bg-grid-accent, rgba(112, 104, 200, 0.2))" /><rect x="1040.9" y="105.51" width="5.48" height="5.48" rx="1.21" fill="var(--neuro-bg-grid, rgba(120, 122, 132, 0.1))" /><rect x="1057.92" y="106.57" width="5.48" height="5.48" rx="1.21" fill="var(--neuro-bg-depth-secondary, rgba(126, 138, 164, 0.12))" /><rect x="1023.74" y="118.24" width="4.03" height="4.03" rx="0.9" fill="var(--neuro-bg-depth-secondary, rgba(126, 138, 164, 0.12))" /><rect x="1027.13" y="132.03" width="5.49" height="5.49" rx="1.21" fill="var(--neuro-bg-depth-secondary, rgba(126, 138, 164, 0.12))" /></g>
    <g opacity="0.27"><rect x="1133.88" y="115.83" width="4.83" height="4.83" rx="1.06" fill="var(--neuro-bg-grid, rgba(120, 122, 132, 0.1))" /><rect x="1147.18" y="114.65" width="6.59" height="6.59" rx="1.45" fill="var(--neuro-bg-grid, rgba(120, 122, 132, 0.1))" /><rect x="1160.88" y="115.23" width="6.66" height="6.66" rx="1.47" fill="var(--neuro-bg-grid-accent, rgba(112, 104, 200, 0.2))" /><rect x="1137.33" y="126.21" width="6.87" height="6.87" rx="1.51" fill="var(--neuro-bg-grid, rgba(120, 122, 132, 0.1))" /><rect x="1147.85" y="126.42" width="5.93" height="5.93" rx="1.3" fill="var(--neuro-bg-grid-accent, rgba(112, 104, 200, 0.2))" /><rect x="1173.34" y="125.98" width="7.17" height="7.17" rx="1.58" fill="var(--neuro-bg-grid, rgba(120, 122, 132, 0.1))" /><rect x="1137.54" y="135.2" width="5.45" height="5.45" rx="1.2" fill="var(--neuro-bg-grid, rgba(120, 122, 132, 0.1))" /><rect x="1149.5" y="138.31" width="6.72" height="6.72" rx="1.48" fill="var(--neuro-bg-depth-secondary, rgba(126, 138, 164, 0.12))" /><rect x="1160.62" y="135.7" width="5.76" height="5.76" rx="1.27" fill="var(--neuro-bg-grid, rgba(120, 122, 132, 0.1))" /></g>
    <g opacity="0.04"><rect x="980.2" y="804.19" width="6.65" height="6.65" rx="1.46" fill="var(--neuro-bg-grid, rgba(120, 122, 132, 0.1))" /><rect x="996.59" y="803.63" width="5.26" height="5.26" rx="1.16" fill="var(--neuro-bg-grid, rgba(120, 122, 132, 0.1))" /><rect x="982.29" y="832.73" width="6.38" height="6.38" rx="1.4" fill="var(--neuro-bg-depth-secondary, rgba(126, 138, 164, 0.12))" /><rect x="995.74" y="831.28" width="7.08" height="7.08" rx="1.56" fill="var(--neuro-bg-grid, rgba(120, 122, 132, 0.1))" /><rect x="1012.93" y="834.04" width="4.15" height="4.15" rx="0.91" fill="var(--neuro-bg-grid-accent, rgba(112, 104, 200, 0.2))" /></g>
    <rect x="105.4" y="151.83" width="9.11" height="1.91" rx="0.95" fill="var(--neuro-bg-depth-secondary, rgba(126, 138, 164, 0.12))" opacity="0.03" transform="rotate(0.58 109.95 152.78)" />
    <rect x="94.2" y="67.71" width="13.79" height="1.61" rx="0.8" fill="var(--neuro-bg-depth-secondary, rgba(126, 138, 164, 0.12))" opacity="0.04" transform="rotate(-9.49 101.09 68.51)" />
    <rect x="79.58" y="84.19" width="9.84" height="2.31" rx="1.16" fill="var(--neuro-bg-depth, rgba(17, 17, 17, 0.08))" opacity="0.06" transform="rotate(-11.82 84.5 85.34)" />
    <rect x="180.87" y="53.07" width="10.78" height="1.09" rx="0.55" fill="var(--neuro-bg-depth, rgba(17, 17, 17, 0.08))" opacity="0.05" transform="rotate(-9.51 186.27 53.62)" />
    <rect x="369.36" y="120.43" width="13.39" height="1.74" rx="0.87" fill="var(--neuro-bg-depth-secondary, rgba(126, 138, 164, 0.12))" opacity="0.07" transform="rotate(-2.22 376.06 121.31)" />
    <rect x="247.04" y="86.29" width="7.49" height="1.64" rx="0.82" fill="var(--neuro-bg-depth, rgba(17, 17, 17, 0.08))" opacity="0.05" transform="rotate(-4.91 250.78 87.11)" />
    <rect x="330.86" y="176.51" width="9.01" height="2.2" rx="1.1" fill="var(--neuro-bg-depth-secondary, rgba(126, 138, 164, 0.12))" opacity="0.08" transform="rotate(8.16 335.36 177.61)" />
    <rect x="85.64" y="147.13" width="6.57" height="1.86" rx="0.93" fill="var(--neuro-bg-depth-secondary, rgba(126, 138, 164, 0.12))" opacity="0.03" transform="rotate(-8.21 88.92 148.06)" />
    <rect x="82.51" y="106.29" width="11.69" height="1.52" rx="0.76" fill="var(--neuro-bg-depth-secondary, rgba(126, 138, 164, 0.12))" opacity="0.06" transform="rotate(-0.88 88.36 107.06)" />
    <rect x="264.03" y="90.47" width="11.9" height="1.31" rx="0.65" fill="var(--neuro-bg-depth-secondary, rgba(126, 138, 164, 0.12))" opacity="0.05" transform="rotate(3.28 269.99 91.13)" />
    <rect x="268.06" y="167.31" width="13.71" height="2.01" rx="1.01" fill="var(--neuro-bg-depth, rgba(17, 17, 17, 0.08))" opacity="0.04" transform="rotate(-3.81 274.91 168.32)" />
    <rect x="420.54" y="84.71" width="7.82" height="1.84" rx="0.92" fill="var(--neuro-bg-depth, rgba(17, 17, 17, 0.08))" opacity="0.04" transform="rotate(5.49 424.45 85.63)" />
    <rect x="132.45" y="112.68" width="8.67" height="1.18" rx="0.59" fill="var(--neuro-bg-depth, rgba(17, 17, 17, 0.08))" opacity="0.04" transform="rotate(-7.78 136.79 113.27)" />
    <rect x="279.65" y="130.31" width="15.95" height="1.07" rx="0.54" fill="var(--neuro-bg-depth-secondary, rgba(126, 138, 164, 0.12))" opacity="0.05" transform="rotate(2.65 287.62 130.85)" />
    <rect x="149.32" y="72.22" width="9.82" height="1.3" rx="0.65" fill="var(--neuro-bg-depth-secondary, rgba(126, 138, 164, 0.12))" opacity="0.03" transform="rotate(-10.67 154.23 72.87)" />
    <rect x="229.65" y="48" width="13.32" height="1.55" rx="0.77" fill="var(--neuro-bg-depth-secondary, rgba(126, 138, 164, 0.12))" opacity="0.06" transform="rotate(-3.07 236.31 48.77)" />
    <rect x="180.94" y="113.61" width="15.08" height="1.96" rx="0.98" fill="var(--neuro-bg-depth-secondary, rgba(126, 138, 164, 0.12))" opacity="0.03" transform="rotate(-4.24 188.48 114.59)" />
    <rect x="34.01" y="37.12" width="6" height="2.24" rx="1.12" fill="var(--neuro-bg-depth-secondary, rgba(126, 138, 164, 0.12))" opacity="0.04" transform="rotate(-7.28 37.01 38.24)" />
    <rect x="45.25" y="173.58" width="9.14" height="1.62" rx="0.81" fill="var(--neuro-bg-depth, rgba(17, 17, 17, 0.08))" opacity="0.04" transform="rotate(7.22 49.82 174.39)" />
    <rect x="118.36" y="93.2" width="11.84" height="1.71" rx="0.86" fill="var(--neuro-bg-depth-secondary, rgba(126, 138, 164, 0.12))" opacity="0.08" transform="rotate(-8.67 124.28 94.06)" />
    <rect x="155.44" y="136.76" width="7.17" height="1.24" rx="0.62" fill="var(--neuro-bg-depth-secondary, rgba(126, 138, 164, 0.12))" opacity="0.07" transform="rotate(7.1 159.03 137.38)" />
    <rect x="185.59" y="124" width="15.86" height="1.66" rx="0.83" fill="var(--neuro-bg-depth-secondary, rgba(126, 138, 164, 0.12))" opacity="0.03" transform="rotate(3.26 193.52 124.83)" />
    <rect x="151.98" y="82.53" width="12.4" height="2.04" rx="1.02" fill="var(--neuro-bg-depth-secondary, rgba(126, 138, 164, 0.12))" opacity="0.07" transform="rotate(9.05 158.18 83.56)" />
    <rect x="329.43" y="89.51" width="14.5" height="1.45" rx="0.73" fill="var(--neuro-bg-depth, rgba(17, 17, 17, 0.08))" opacity="0.07" transform="rotate(-9.74 336.68 90.24)" />
    <rect x="295.38" y="155.41" width="14.82" height="1.32" rx="0.66" fill="var(--neuro-bg-depth, rgba(17, 17, 17, 0.08))" opacity="0.04" transform="rotate(10.99 302.79 156.07)" />
    <rect x="54.55" y="129.68" width="15.03" height="1.71" rx="0.86" fill="var(--neuro-bg-depth, rgba(17, 17, 17, 0.08))" opacity="0.04" transform="rotate(-7.68 62.06 130.54)" />
  </g>
  <g class="neuro-background__trajectory">
    <path d="M 612 470 C 625.15 465.89, 661.38 458.64, 690.88 445.33 C 720.38 432.01, 758.11 402.52, 789.02 390.1 C 819.92 377.68, 845.45 388.57, 876.32 370.8 C 907.18 353.03, 940.63 309.79, 974.22 283.5 C 1007.82 257.21, 1050.93 236.3, 1077.9 213.05 C 1104.86 189.8, 1126.32 155.51, 1136 144" fill="none" stroke="var(--neuro-bg-trajectory, rgba(81, 70, 166, 0.34))" stroke-width="2" stroke-linecap="round" stroke-linejoin="round" opacity="0.94" />
    <path d="M 551.34 508.22 C 560.23 506.23, 588.53 502.71, 604.7 496.31 C 620.87 489.9, 647.15 474.17, 648.37 469.79 C 649.59 465.41, 618.06 469.97, 612 470" fill="none" stroke="var(--neuro-bg-depth-secondary, rgba(126, 138, 164, 0.12))" stroke-width="1.24" stroke-linecap="round" stroke-linejoin="round" opacity="0.42" />
    <g class="neuro-background__nodes"><circle cx="690.88" cy="445.33" r="3.64" fill="var(--neuro-bg-node, rgba(72, 105, 170, 0.28))" opacity="0.27" /><circle cx="789.02" cy="390.1" r="3.76" fill="var(--neuro-bg-node, rgba(72, 105, 170, 0.28))" opacity="0.39" /><circle cx="974.22" cy="283.5" r="3.12" fill="var(--neuro-bg-node, rgba(72, 105, 170, 0.28))" opacity="0.27" /><circle cx="1077.9" cy="213.05" r="3.91" fill="var(--neuro-bg-node, rgba(72, 105, 170, 0.28))" opacity="0.36" /><circle cx="1136" cy="144" r="3.71" fill="var(--neuro-bg-node, rgba(72, 105, 170, 0.28))" opacity="0.45" /></g>
  </g>
  <g class="neuro-background__cloud neuro-background__dots">
    <circle cx="621.18" cy="464.38" r="0.93" fill="var(--neuro-bg-dot, rgba(72, 105, 170, 0.28))" opacity="0.14" />
    <circle cx="654.69" cy="455.19" r="1.03" fill="var(--neuro-bg-dot-soft, rgba(80, 82, 92, 0.16))" opacity="0.09" />
    <circle cx="665.26" cy="426.65" r="1.25" fill="var(--neuro-bg-dot, rgba(72, 105, 170, 0.28))" opacity="0.13" />
    <circle cx="750.1" cy="436.72" r="1.19" fill="var(--neuro-bg-dot-soft, rgba(80, 82, 92, 0.16))" opacity="0.07" />
    <circle cx="629.93" cy="449.52" r="1.02" fill="var(--neuro-bg-dot, rgba(72, 105, 170, 0.28))" opacity="0.13" />
    <circle cx="702.91" cy="444.83" r="1.33" fill="var(--neuro-bg-dot-soft, rgba(80, 82, 92, 0.16))" opacity="0.06" />
    <circle cx="669.63" cy="435.6" r="1.15" fill="var(--neuro-bg-dot-soft, rgba(80, 82, 92, 0.16))" opacity="0.08" />
    <circle cx="724.43" cy="456.65" r="0.87" fill="var(--neuro-bg-dot, rgba(72, 105, 170, 0.28))" opacity="0.09" />
    <circle cx="666.33" cy="479.54" r="1.04" fill="var(--neuro-bg-dot-soft, rgba(80, 82, 92, 0.16))" opacity="0.14" />
    <circle cx="668.5" cy="459.21" r="1.16" fill="var(--neuro-bg-dot-soft, rgba(80, 82, 92, 0.16))" opacity="0.11" />
    <circle cx="643.01" cy="462.2" r="1.11" fill="var(--neuro-bg-dot-soft, rgba(80, 82, 92, 0.16))" opacity="0.07" />
    <circle cx="666.5" cy="492.46" r="1.16" fill="var(--neuro-bg-dot-soft, rgba(80, 82, 92, 0.16))" opacity="0.05" />
    <circle cx="650.42" cy="473.13" r="1.23" fill="var(--neuro-bg-dot, rgba(72, 105, 170, 0.28))" opacity="0.11" />
    <circle cx="649.6" cy="451.04" r="1.06" fill="var(--neuro-bg-dot-soft, rgba(80, 82, 92, 0.16))" opacity="0.12" />
    <circle cx="621.8" cy="470.88" r="1.26" fill="var(--neuro-bg-dot-soft, rgba(80, 82, 92, 0.16))" opacity="0.07" />
    <circle cx="654.76" cy="451.86" r="1.04" fill="var(--neuro-bg-dot-soft, rgba(80, 82, 92, 0.16))" opacity="0.08" />
    <circle cx="623.47" cy="487.77" r="1.27" fill="var(--neuro-bg-dot, rgba(72, 105, 170, 0.28))" opacity="0.08" />
    <circle cx="664.25" cy="474.8" r="1.11" fill="var(--neuro-bg-dot-soft, rgba(80, 82, 92, 0.16))" opacity="0.06" />
    <circle cx="634.99" cy="456.95" r="0.99" fill="var(--neuro-bg-dot, rgba(72, 105, 170, 0.28))" opacity="0.1" />
    <circle cx="709.33" cy="475.73" r="1.35" fill="var(--neuro-bg-dot, rgba(72, 105, 170, 0.28))" opacity="0.07" />
    <circle cx="806.16" cy="355.22" r="1.75" fill="var(--neuro-bg-dot, rgba(72, 105, 170, 0.28))" opacity="0.17" />
    <circle cx="883.67" cy="350.9" r="1.26" fill="var(--neuro-bg-dot, rgba(72, 105, 170, 0.28))" opacity="0.2" />
    <circle cx="991.61" cy="276.25" r="0.9" fill="var(--neuro-bg-dot-soft, rgba(80, 82, 92, 0.16))" opacity="0.36" />
    <circle cx="1001.61" cy="238.57" r="1.87" fill="var(--neuro-bg-dot, rgba(72, 105, 170, 0.28))" opacity="0.32" />
    <circle cx="1114.61" cy="117.13" r="1.2" fill="var(--neuro-bg-dot, rgba(72, 105, 170, 0.28))" opacity="0.11" />
    <circle cx="765.28" cy="378.79" r="1.75" fill="var(--neuro-bg-dot, rgba(72, 105, 170, 0.28))" opacity="0.28" />
    <circle cx="940.61" cy="345.3" r="1.84" fill="var(--neuro-bg-dot-accent, rgba(81, 70, 166, 0.42))" opacity="0.3" />
    <circle cx="987.77" cy="302.86" r="1.6" fill="var(--neuro-bg-dot-soft, rgba(80, 82, 92, 0.16))" opacity="0.35" />
    <circle cx="1054.23" cy="197.66" r="1.17" fill="var(--neuro-bg-dot-soft, rgba(80, 82, 92, 0.16))" opacity="0.31" />
    <circle cx="1122.54" cy="157.83" r="1.46" fill="var(--neuro-bg-dot-soft, rgba(80, 82, 92, 0.16))" opacity="0.31" />
    <circle cx="843.31" cy="367.87" r="1.76" fill="var(--neuro-bg-dot, rgba(72, 105, 170, 0.28))" opacity="0.33" />
    <circle cx="902.05" cy="377.18" r="1.18" fill="var(--neuro-bg-dot-soft, rgba(80, 82, 92, 0.16))" opacity="0.22" />
    <circle cx="974.56" cy="281.96" r="0.96" fill="var(--neuro-bg-dot, rgba(72, 105, 170, 0.28))" opacity="0.11" />
    <circle cx="1143.8" cy="204.97" r="0.99" fill="var(--neuro-bg-dot-soft, rgba(80, 82, 92, 0.16))" opacity="0.17" />
    <circle cx="1106.84" cy="174.17" r="1.52" fill="var(--neuro-bg-dot, rgba(72, 105, 170, 0.28))" opacity="0.18" />
    <circle cx="819.87" cy="413.33" r="1.65" fill="var(--neuro-bg-dot-accent, rgba(81, 70, 166, 0.42))" opacity="0.14" />
    <circle cx="843.93" cy="396.11" r="1.72" fill="var(--neuro-bg-dot, rgba(72, 105, 170, 0.28))" opacity="0.26" />
    <circle cx="944.39" cy="293.96" r="1.42" fill="var(--neuro-bg-dot-soft, rgba(80, 82, 92, 0.16))" opacity="0.28" />
    <circle cx="1053.17" cy="217.8" r="1.46" fill="var(--neuro-bg-dot-accent, rgba(81, 70, 166, 0.42))" opacity="0.21" />
    <circle cx="1073.49" cy="168.03" r="1.88" fill="var(--neuro-bg-dot, rgba(72, 105, 170, 0.28))" opacity="0.31" />
    <circle cx="786.11" cy="419.05" r="1.03" fill="var(--neuro-bg-dot-soft, rgba(80, 82, 92, 0.16))" opacity="0.34" />
    <circle cx="889.62" cy="333.58" r="1.67" fill="var(--neuro-bg-dot-accent, rgba(81, 70, 166, 0.42))" opacity="0.25" />
    <circle cx="993.14" cy="283.94" r="1.71" fill="var(--neuro-bg-dot-accent, rgba(81, 70, 166, 0.42))" opacity="0.11" />
    <circle cx="1093.51" cy="201.9" r="0.92" fill="var(--neuro-bg-dot-soft, rgba(80, 82, 92, 0.16))" opacity="0.32" />
    <circle cx="1106.11" cy="100.14" r="1.9" fill="var(--neuro-bg-dot-soft, rgba(80, 82, 92, 0.16))" opacity="0.1" />
    <circle cx="793.46" cy="359.17" r="1.65" fill="var(--neuro-bg-dot, rgba(72, 105, 170, 0.28))" opacity="0.35" />
    <circle cx="904.22" cy="379.43" r="1.49" fill="var(--neuro-bg-dot-soft, rgba(80, 82, 92, 0.16))" opacity="0.14" />
    <circle cx="974.23" cy="319.47" r="1.69" fill="var(--neuro-bg-dot, rgba(72, 105, 170, 0.28))" opacity="0.2" />
    <circle cx="1057.04" cy="234.91" r="0.99" fill="var(--neuro-bg-dot-soft, rgba(80, 82, 92, 0.16))" opacity="0.2" />
    <circle cx="1135.67" cy="128.62" r="1.63" fill="var(--neuro-bg-dot-soft, rgba(80, 82, 92, 0.16))" opacity="0.23" />
    <circle cx="760" cy="393.91" r="1.84" fill="var(--neuro-bg-dot-accent, rgba(81, 70, 166, 0.42))" opacity="0.3" />
    <circle cx="911.85" cy="355.1" r="1.37" fill="var(--neuro-bg-dot-soft, rgba(80, 82, 92, 0.16))" opacity="0.16" />
    <circle cx="988.39" cy="316.27" r="1.23" fill="var(--neuro-bg-dot, rgba(72, 105, 170, 0.28))" opacity="0.35" />
    <circle cx="1062.79" cy="252.02" r="1.33" fill="var(--neuro-bg-dot-soft, rgba(80, 82, 92, 0.16))" opacity="0.16" />
    <circle cx="1137.49" cy="149.51" r="1.4" fill="var(--neuro-bg-dot, rgba(72, 105, 170, 0.28))" opacity="0.19" />
    <circle cx="763.36" cy="430.43" r="1.05" fill="var(--neuro-bg-dot-soft, rgba(80, 82, 92, 0.16))" opacity="0.25" />
    <circle cx="813.11" cy="380.63" r="1.76" fill="var(--neuro-bg-dot-soft, rgba(80, 82, 92, 0.16))" opacity="0.29" />
    <circle cx="995.58" cy="262.89" r="1.67" fill="var(--neuro-bg-dot-soft, rgba(80, 82, 92, 0.16))" opacity="0.15" />
    <circle cx="1083.06" cy="254.21" r="1.61" fill="var(--neuro-bg-dot-soft, rgba(80, 82, 92, 0.16))" opacity="0.15" />
    <circle cx="1145.74" cy="162.68" r="1.1" fill="var(--neuro-bg-dot-soft, rgba(80, 82, 92, 0.16))" opacity="0.34" />
    <circle cx="786.88" cy="442.11" r="1.23" fill="var(--neuro-bg-dot, rgba(72, 105, 170, 0.28))" opacity="0.11" />
    <circle cx="930.13" cy="397.88" r="1.21" fill="var(--neuro-bg-dot, rgba(72, 105, 170, 0.28))" opacity="0.28" />
    <circle cx="1004.9" cy="284.51" r="1.36" fill="var(--neuro-bg-dot-soft, rgba(80, 82, 92, 0.16))" opacity="0.25" />
    <circle cx="1110.43" cy="205.88" r="1.47" fill="var(--neuro-bg-dot, rgba(72, 105, 170, 0.28))" opacity="0.27" />
    <circle cx="1170" cy="179.28" r="1.85" fill="var(--neuro-bg-dot, rgba(72, 105, 170, 0.28))" opacity="0.19" />
    <circle cx="797.05" cy="346.78" r="1.21" fill="var(--neuro-bg-dot-soft, rgba(80, 82, 92, 0.16))" opacity="0.31" />
    <circle cx="870.75" cy="414.15" r="1.91" fill="var(--neuro-bg-dot-soft, rgba(80, 82, 92, 0.16))" opacity="0.12" />
    <circle cx="942.57" cy="284.43" r="1.65" fill="var(--neuro-bg-dot-soft, rgba(80, 82, 92, 0.16))" opacity="0.14" />
    <circle cx="1048.63" cy="183.95" r="1.09" fill="var(--neuro-bg-dot-soft, rgba(80, 82, 92, 0.16))" opacity="0.12" />
    <circle cx="1153.08" cy="138.04" r="1.25" fill="var(--neuro-bg-dot-soft, rgba(80, 82, 92, 0.16))" opacity="0.24" />
    <circle cx="766.43" cy="367.1" r="1.23" fill="var(--neuro-bg-dot-accent, rgba(81, 70, 166, 0.42))" opacity="0.29" />
    <circle cx="877.51" cy="338.27" r="1.68" fill="var(--neuro-bg-dot, rgba(72, 105, 170, 0.28))" opacity="0.19" />
    <circle cx="981.17" cy="278.02" r="1.43" fill="var(--neuro-bg-dot, rgba(72, 105, 170, 0.28))" opacity="0.19" />
    <circle cx="1060.71" cy="235.97" r="1.47" fill="var(--neuro-bg-dot-soft, rgba(80, 82, 92, 0.16))" opacity="0.32" />
    <circle cx="1156.57" cy="157.37" r="1" fill="var(--neuro-bg-dot, rgba(72, 105, 170, 0.28))" opacity="0.29" />
    <circle cx="797.78" cy="405.54" r="1.34" fill="var(--neuro-bg-dot-soft, rgba(80, 82, 92, 0.16))" opacity="0.3" />
    <circle cx="860.28" cy="362.81" r="1.32" fill="var(--neuro-bg-dot, rgba(72, 105, 170, 0.28))" opacity="0.25" />
    <circle cx="981.88" cy="302.34" r="1.72" fill="var(--neuro-bg-dot, rgba(72, 105, 170, 0.28))" opacity="0.34" />
    <circle cx="1109.64" cy="205.05" r="1.48" fill="var(--neuro-bg-dot-soft, rgba(80, 82, 92, 0.16))" opacity="0.36" />
    <circle cx="1124.88" cy="123.78" r="1.8" fill="var(--neuro-bg-dot-soft, rgba(80, 82, 92, 0.16))" opacity="0.29" />
    <circle cx="847.34" cy="390.76" r="1.6" fill="var(--neuro-bg-dot-soft, rgba(80, 82, 92, 0.16))" opacity="0.22" />
    <circle cx="890.84" cy="400.73" r="0.94" fill="var(--neuro-bg-dot-soft, rgba(80, 82, 92, 0.16))" opacity="0.21" />
    <circle cx="895.57" cy="257.02" r="1.84" fill="var(--neuro-bg-dot, rgba(72, 105, 170, 0.28))" opacity="0.26" />
    <circle cx="1108.4" cy="220.73" r="1.15" fill="var(--neuro-bg-dot, rgba(72, 105, 170, 0.28))" opacity="0.35" />
    <circle cx="1105.52" cy="191.12" r="1.63" fill="var(--neuro-bg-dot, rgba(72, 105, 170, 0.28))" opacity="0.26" />
    <circle cx="837.38" cy="371.83" r="1.68" fill="var(--neuro-bg-dot, rgba(72, 105, 170, 0.28))" opacity="0.35" />
    <circle cx="899.8" cy="349.49" r="1.69" fill="var(--neuro-bg-dot-accent, rgba(81, 70, 166, 0.42))" opacity="0.1" />
    <circle cx="994.29" cy="291.68" r="1.07" fill="var(--neuro-bg-dot-soft, rgba(80, 82, 92, 0.16))" opacity="0.24" />
    <circle cx="1034.46" cy="230.74" r="1.22" fill="var(--neuro-bg-dot-soft, rgba(80, 82, 92, 0.16))" opacity="0.2" />
    <circle cx="1166.78" cy="194.51" r="1.66" fill="var(--neuro-bg-dot, rgba(72, 105, 170, 0.28))" opacity="0.24" />
    <circle cx="769.12" cy="379.55" r="0.9" fill="var(--neuro-bg-dot, rgba(72, 105, 170, 0.28))" opacity="0.13" />
    <circle cx="854.61" cy="375.06" r="1.12" fill="var(--neuro-bg-dot, rgba(72, 105, 170, 0.28))" opacity="0.13" />
    <circle cx="929.47" cy="766.06" r="0.98" fill="var(--neuro-bg-dot-soft, rgba(80, 82, 92, 0.16))" opacity="0.03" />
    <circle cx="923.12" cy="787.34" r="1.22" fill="var(--neuro-bg-dot-soft, rgba(80, 82, 92, 0.16))" opacity="0.05" />
    <circle cx="854.4" cy="755.16" r="1" fill="var(--neuro-bg-dot-soft, rgba(80, 82, 92, 0.16))" opacity="0.04" />
    <circle cx="971.38" cy="767.89" r="1.06" fill="var(--neuro-bg-dot-soft, rgba(80, 82, 92, 0.16))" opacity="0.03" />
    <circle cx="776.32" cy="726.34" r="1.21" fill="var(--neuro-bg-dot-soft, rgba(80, 82, 92, 0.16))" opacity="0.03" />
    <circle cx="965.97" cy="787.15" r="0.95" fill="var(--neuro-bg-dot-soft, rgba(80, 82, 92, 0.16))" opacity="0.03" />
  </g>
</svg>
