<?xml version="1.0" encoding="UTF-8"?>
<svg xmlns="http://www.w3.org/2000/svg" viewBox="0 0 1200 900" width="1200" height="900" preserveAspectRatio="xMidYMid slice" aria-hidden="true" role="presentation">
  <!-- Zone system: left_title -> central_bridge -> right_anchor -> lower_echo -->
  <g class="neuro-background__field neuro-background__contours">
    <path d="M 39.77 174.71 C 57.29 176.81, 104.92 192.21, 144.88 187.3 C 184.84 182.39, 231.19 146.92, 279.52 145.24 C 327.85 143.57, 408.95 171.9, 434.84 177.23" fill="none" stroke="var(--neuro-bg-depth-secondary, rgba(126, 138, 164, 0.12))" stroke-width="0.91" stroke-linecap="round" stroke-linejoin="round" opacity="0.07" />
    <path d="M 580.91 198.17 C 590.66 199.59, 615.63 206.78, 639.44 206.7 C 663.25 206.62, 695.82 197.64, 723.76 197.68 C 751.7 197.72, 793.21 205.4, 807.1 206.94" fill="none" stroke="var(--neuro-bg-line-soft, rgba(120, 122, 132, 0.1))" stroke-width="0.89" stroke-linecap="round" stroke-linejoin="round" opacity="0.1" />
    <path d="M 561.89 527.83 C 574.82 528.34, 612.46 527.27, 639.44 530.91 C 666.42 534.54, 693.93 547.39, 723.76 549.64 C 753.59 551.89, 802.66 545.29, 818.44 544.42" fill="none" stroke="var(--neuro-bg-line-soft, rgba(120, 122, 132, 0.1))" stroke-width="1.06" stroke-linecap="round" stroke-linejoin="round" opacity="0.1" />
    <path d="M 763.08 227.82 C 781.7 224.21, 832.95 203.29, 874.8 206.17 C 916.65 209.04, 967.19 238.79, 1014.2 245.08 C 1061.21 251.36, 1133.09 244.08, 1156.86 243.89" fill="none" stroke="var(--neuro-bg-line-soft, rgba(120, 122, 132, 0.1))" stroke-width="0.97" stroke-linecap="round" stroke-linejoin="round" opacity="0.28" />
    <path d="M 1073.35 54 C 1075.54 84.89, 1085.84 170.95, 1086.5 239.36 C 1087.16 307.77, 1080.41 385, 1077.32 464.44 C 1074.24 543.88, 1069.55 674.07, 1067.99 716" fill="none" stroke="var(--neuro-bg-line, rgba(81, 70, 166, 0.12))" stroke-width="0.93" stroke-linecap="round" stroke-linejoin="round" opacity="0.2" />
    <path d="M 775.14 419.73 C 791.75 419.8, 834.96 421.27, 874.8 420.14 C 914.64 419.02, 965.93 410.68, 1014.2 412.98 C 1062.47 415.29, 1139.37 430.48, 1164.4 433.98" fill="none" stroke="var(--neuro-bg-line-soft, rgba(120, 122, 132, 0.1))" stroke-width="1.05" stroke-linecap="round" stroke-linejoin="round" opacity="0.16" />
    <path d="M 773.78 402.99 C 790.62 406.69, 834.73 426.23, 874.8 425.22 C 914.87 424.22, 964.98 397.9, 1014.2 396.97 C 1063.42 396.04, 1144.11 415.86, 1170.1 419.64" fill="none" stroke="var(--neuro-bg-line-soft, rgba(120, 122, 132, 0.1))" stroke-width="0.96" stroke-linecap="round" stroke-linejoin="round" opacity="0.25" />
    <path d="M 76.42 830.79 C 121.27 828.68, 247.74 818.72, 345.52 818.12 C 443.3 817.52, 550.03 823.77, 663.08 827.18 C 776.13 830.59, 963.7 836.69, 1023.83 838.59" fill="none" stroke="var(--neuro-bg-line-soft, rgba(120, 122, 132, 0.1))" stroke-width="0.93" stroke-linecap="round" stroke-linejoin="round" opacity="0.07" />
    <g opacity="0.06"><line x1="119.23" y1="101.34" x2="196.31" y2="110.83" stroke="var(--neuro-bg-depth-secondary, rgba(126, 138, 164, 0.12))" stroke-width="0.84" stroke-linecap="round" /><line x1="119.23" y1="101.34" x2="157.74" y2="46.63" stroke="var(--neuro-bg-line-soft, rgba(120, 122, 132, 0.1))" stroke-width="0.78" stroke-linecap="round" /><line x1="131.64" y1="101.84" x2="137.64" y2="104.64" stroke="var(--neuro-bg-depth-secondary, rgba(126, 138, 164, 0.12))" stroke-width="0.7" stroke-linecap="round" /><line x1="147.06" y1="103.74" x2="153.06" y2="106.54" stroke="var(--neuro-bg-depth-secondary, rgba(126, 138, 164, 0.12))" stroke-width="0.7" stroke-linecap="round" /><line x1="162.47" y1="105.64" x2="168.47" y2="108.44" stroke="var(--neuro-bg-depth-secondary, rgba(126, 138, 164, 0.12))" stroke-width="0.7" stroke-linecap="round" /><line x1="177.89" y1="107.54" x2="183.89" y2="110.34" stroke="var(--neuro-bg-depth-secondary, rgba(126, 138, 164, 0.12))" stroke-width="0.7" stroke-linecap="round" /></g>
  </g>
  <g class="neuro-background__fragments neuro-background__grids">
    <g opacity="0.1"><rect x="138.36" y="116.61" width="5.21" height="5.21" rx="1.15" fill="var(--neuro-bg-grid-accent, rgba(112, 104, 200, 0.2))" /><rect x="151.33" y="116.51" width="4.53" height="4.53" rx="1" fill="var(--neuro-bg-grid, rgba(120, 122, 132, 0.1))" /><rect x="127.95" y="127.03" width="6.05" height="6.05" rx="1.33" fill="var(--neuro-bg-grid-accent, rgba(112, 104, 200, 0.2))" /><rect x="125.66" y="139.29" width="5.2" height="5.2" rx="1.14" fill="var(--neuro-bg-grid, rgba(120, 122, 132, 0.1))" /><rect x="140.19" y="137.48" width="5.28" height="5.28" rx="1.16" fill="var(--neuro-bg-grid, rgba(120, 122, 132, 0.1))" /><rect x="153.36" y="139.08" width="6.21" height="6.21" rx="1.37" fill="var(--neuro-bg-grid, rgba(120, 122, 132, 0.1))" /><rect x="128.15" y="147.66" width="6.41" height="6.41" rx="1.41" fill="var(--neuro-bg-grid, rgba(120, 122, 132, 0.1))" /><rect x="137.6" y="150.32" width="5.26" height="5.26" rx="1.16" fill="var(--neuro-bg-grid, rgba(120, 122, 132, 0.1))" /><rect x="153.41" y="147" width="4.6" height="4.6" rx="1.01" fill="var(--neuro-bg-grid-accent, rgba(112, 104, 200, 0.2))" /></g>
    <g opacity="0.14"><rect x="898.33" y="414.96" width="4.48" height="4.48" rx="0.99" fill="var(--neuro-bg-grid-accent, rgba(112, 104, 200, 0.2))" /><rect x="898.07" y="423.57" width="5.35" height="5.35" rx="1.18" fill="var(--neuro-bg-depth-secondary, rgba(126, 138, 164, 0.12))" /><rect x="911.9" y="425.27" width="5.08" height="5.08" rx="1.12" fill="var(--neuro-bg-grid-accent, rgba(112, 104, 200, 0.2))" /><rect x="900.18" y="433.67" width="5.38" height="5.38" rx="1.18" fill="var(--neuro-bg-grid, rgba(120, 122, 132, 0.1))" /><rect x="912.85" y="434.71" width="6.46" height="6.46" rx="1.42" fill="var(--neuro-bg-grid, rgba(120, 122, 132, 0.1))" /><rect x="925.01" y="436.49" width="5.98" height="5.98" rx="1.32" fill="var(--neuro-bg-grid, rgba(120, 122, 132, 0.1))" /><rect x="901.02" y="447.44" width="7.15" height="7.15" rx="1.57" fill="var(--neuro-bg-grid, rgba(120, 122, 132, 0.1))" /><rect x="910.84" y="448.05" width="4.15" height="4.15" rx="0.91" fill="var(--neuro-bg-grid-accent, rgba(112, 104, 200, 0.2))" /><rect x="927.4" y="444.38" width="6.18" height="6.18" rx="1.36" fill="var(--neuro-bg-grid, rgba(120, 122, 132, 0.1))" /></g>
    <g opacity="0.04"><rect x="94.15" y="722.92" width="4.29" height="4.29" rx="0.94" fill="var(--neuro-bg-grid-accent, rgba(112, 104, 200, 0.2))" /><rect x="104.23" y="722.55" width="4.77" height="4.77" rx="1.05" fill="var(--neuro-bg-grid-accent, rgba(112, 104, 200, 0.2))" /><rect x="115.14" y="723.99" width="4.19" height="4.19" rx="0.92" fill="var(--neuro-bg-grid, rgba(120, 122, 132, 0.1))" /><rect x="126.94" y="722.29" width="6.8" height="6.8" rx="1.5" fill="var(--neuro-bg-grid-accent, rgba(112, 104, 200, 0.2))" /></g>
    <rect x="343.26" y="161.79" width="11.11" height="2.17" rx="1.08" fill="var(--neuro-bg-depth, rgba(17, 17, 17, 0.08))" opacity="0.03" transform="rotate(-7.84 348.81 162.87)" />
    <rect x="113.95" y="93.49" width="7.44" height="1.18" rx="0.59" fill="var(--neuro-bg-depth-secondary, rgba(126, 138, 164, 0.12))" opacity="0.04" transform="rotate(-9.62 117.67 94.08)" />
    <rect x="73.58" y="79.56" width="11.27" height="1.68" rx="0.84" fill="var(--neuro-bg-depth-secondary, rgba(126, 138, 164, 0.12))" opacity="0.04" transform="rotate(-8.7 79.22 80.41)" />
    <rect x="250.62" y="45.21" width="12.02" height="2.05" rx="1.03" fill="var(--neuro-bg-depth-secondary, rgba(126, 138, 164, 0.12))" opacity="0.04" transform="rotate(-11.06 256.63 46.24)" />
    <rect x="88.69" y="28.8" width="8.63" height="2.01" rx="1.01" fill="var(--neuro-bg-depth, rgba(17, 17, 17, 0.08))" opacity="0.05" transform="rotate(8.67 93 29.8)" />
    <rect x="122.91" y="53.47" width="9.13" height="1.96" rx="0.98" fill="var(--neuro-bg-depth-secondary, rgba(126, 138, 164, 0.12))" opacity="0.08" transform="rotate(4.65 127.48 54.45)" />
    <rect x="397.12" y="179.63" width="6.92" height="1.96" rx="0.98" fill="var(--neuro-bg-depth, rgba(17, 17, 17, 0.08))" opacity="0.07" transform="rotate(11.11 400.58 180.61)" />
    <rect x="96.39" y="90.16" width="14.2" height="2.19" rx="1.09" fill="var(--neuro-bg-depth-secondary, rgba(126, 138, 164, 0.12))" opacity="0.05" transform="rotate(9.55 103.49 91.26)" />
    <rect x="298.44" y="30.87" width="8.97" height="2.21" rx="1.1" fill="var(--neuro-bg-depth, rgba(17, 17, 17, 0.08))" opacity="0.06" transform="rotate(10.66 302.92 31.98)" />
    <rect x="40.24" y="109.39" width="8.61" height="2.02" rx="1.01" fill="var(--neuro-bg-depth, rgba(17, 17, 17, 0.08))" opacity="0.06" transform="rotate(9.4 44.54 110.4)" />
    <rect x="204.17" y="50.27" width="7.71" height="2.22" rx="1.11" fill="var(--neuro-bg-depth, rgba(17, 17, 17, 0.08))" opacity="0.07" transform="rotate(-2.81 208.02 51.38)" />
    <rect x="276.62" y="149.49" width="11.81" height="1.62" rx="0.81" fill="var(--neuro-bg-depth, rgba(17, 17, 17, 0.08))" opacity="0.07" transform="rotate(-3.89 282.53 150.3)" />
    <rect x="62.02" y="99.37" width="12.26" height="1.66" rx="0.83" fill="var(--neuro-bg-depth, rgba(17, 17, 17, 0.08))" opacity="0.07" transform="rotate(1.85 68.15 100.2)" />
    <rect x="378.19" y="133.2" width="14.23" height="1.14" rx="0.57" fill="var(--neuro-bg-depth-secondary, rgba(126, 138, 164, 0.12))" opacity="0.07" transform="rotate(11.79 385.3 133.77)" />
    <rect x="57.19" y="132.81" width="13.92" height="1.93" rx="0.97" fill="var(--neuro-bg-depth-secondary, rgba(126, 138, 164, 0.12))" opacity="0.07" transform="rotate(-0.7 64.15 133.77)" />
    <rect x="315.83" y="81.66" width="11.74" height="1.3" rx="0.65" fill="var(--neuro-bg-depth, rgba(17, 17, 17, 0.08))" opacity="0.03" transform="rotate(5.31 321.7 82.3)" />
    <rect x="284.73" y="115.23" width="8.79" height="1.12" rx="0.56" fill="var(--neuro-bg-depth, rgba(17, 17, 17, 0.08))" opacity="0.05" transform="rotate(-6.3 289.13 115.79)" />
    <rect x="257.7" y="197.2" width="14.56" height="1.32" rx="0.66" fill="var(--neuro-bg-depth, rgba(17, 17, 17, 0.08))" opacity="0.06" transform="rotate(-3.96 264.99 197.86)" />
  </g>
  <g class="neuro-background__trajectory">
    <path d="M 626 448 C 637.56 442.79, 666.02 422.79, 695.36 416.72 C 724.7 410.64, 768.6 422.69, 802.05 411.55 C 835.5 400.41, 863.99 370.88, 896.07 349.86 C 928.16 328.84, 963.55 311.39, 994.54 285.42 C 1025.53 259.44, 1067.42 209.24, 1082 194" fill="none" stroke="var(--neuro-bg-trajectory, rgba(81, 70, 166, 0.34))" stroke-width="1.8" stroke-linecap="round" stroke-linejoin="round" opacity="0.94" />
    <g class="neuro-background__nodes"><circle cx="695.36" cy="416.72" r="3.3" fill="var(--neuro-bg-node, rgba(72, 105, 170, 0.28))" opacity="0.35" /><circle cx="802.05" cy="411.55" r="3.71" fill="var(--neuro-bg-node, rgba(72, 105, 170, 0.28))" opacity="0.48" /><circle cx="994.54" cy="285.42" r="4.03" fill="var(--neuro-bg-node, rgba(72, 105, 170, 0.28))" opacity="0.38" /><circle cx="1082" cy="194" r="3.32" fill="var(--neuro-bg-node, rgba(72, 105, 170, 0.28))" opacity="0.32" /></g>
  </g>
  <g class="neuro-background__cloud neuro-background__dots">
    <circle cx="632.44" cy="448.95" r="1.13" fill="var(--neuro-bg-dot, rgba(72, 105, 170, 0.28))" opacity="0.08" />
    <circle cx="721.95" cy="402.89" r="1.19" fill="var(--neuro-bg-dot, rgba(72, 105, 170, 0.28))" opacity="0.05" />
    <circle cx="665.22" cy="428.08" r="1.29" fill="var(--neuro-bg-dot-soft, rgba(80, 82, 92, 0.16))" opacity="0.12" />
    <circle cx="701.82" cy="400.42" r="1.44" fill="var(--neuro-bg-dot-soft, rgba(80, 82, 92, 0.16))" opacity="0.06" />
    <circle cx="627.12" cy="419.48" r="1.13" fill="var(--neuro-bg-dot-soft, rgba(80, 82, 92, 0.16))" opacity="0.1" />
    <circle cx="724.75" cy="407.06" r="1.35" fill="var(--neuro-bg-dot-soft, rgba(80, 82, 92, 0.16))" opacity="0.14" />
    <circle cx="651.15" cy="436.21" r="1.19" fill="var(--neuro-bg-dot-soft, rgba(80, 82, 92, 0.16))" opacity="0.12" />
    <circle cx="675.6" cy="417.79" r="1.04" fill="var(--neuro-bg-dot-soft, rgba(80, 82, 92, 0.16))" opacity="0.06" />
    <circle cx="644.52" cy="440.22" r="1.4" fill="var(--neuro-bg-dot, rgba(72, 105, 170, 0.28))" opacity="0.14" />
    <circle cx="686.34" cy="396.19" r="1.16" fill="var(--neuro-bg-dot-soft, rgba(80, 82, 92, 0.16))" opacity="0.11" />
    <circle cx="645.28" cy="421.83" r="1.39" fill="var(--neuro-bg-dot, rgba(72, 105, 170, 0.28))" opacity="0.12" />
    <circle cx="733.35" cy="426.17" r="1.01" fill="var(--neuro-bg-dot, rgba(72, 105, 170, 0.28))" opacity="0.13" />
    <circle cx="652.73" cy="461.55" r="1.36" fill="var(--neuro-bg-dot, rgba(72, 105, 170, 0.28))" opacity="0.07" />
    <circle cx="716.83" cy="403.85" r="1.28" fill="var(--neuro-bg-dot, rgba(72, 105, 170, 0.28))" opacity="0.08" />
    <circle cx="826.01" cy="445.83" r="0.99" fill="var(--neuro-bg-dot-accent, rgba(81, 70, 166, 0.42))" opacity="0.29" />
    <circle cx="921.97" cy="352.51" r="1.75" fill="var(--neuro-bg-dot, rgba(72, 105, 170, 0.28))" opacity="0.28" />
    <circle cx="986.94" cy="290.5" r="1.94" fill="var(--neuro-bg-dot-accent, rgba(81, 70, 166, 0.42))" opacity="0.18" />
    <circle cx="1040.05" cy="165.63" r="1.02" fill="var(--neuro-bg-dot-accent, rgba(81, 70, 166, 0.42))" opacity="0.21" />
    <circle cx="807.64" cy="369.09" r="1.85" fill="var(--neuro-bg-dot-soft, rgba(80, 82, 92, 0.16))" opacity="0.28" />
    <circle cx="872.12" cy="353.02" r="1.59" fill="var(--neuro-bg-dot-accent, rgba(81, 70, 166, 0.42))" opacity="0.21" />
    <circle cx="1007.08" cy="275.8" r="1.51" fill="var(--neuro-bg-dot, rgba(72, 105, 170, 0.28))" opacity="0.13" />
    <circle cx="1107.49" cy="188.96" r="1.54" fill="var(--neuro-bg-dot-accent, rgba(81, 70, 166, 0.42))" opacity="0.24" />
    <circle cx="809.43" cy="418.42" r="0.94" fill="var(--neuro-bg-dot-accent, rgba(81, 70, 166, 0.42))" opacity="0.26" />
    <circle cx="798.82" cy="346" r="1.88" fill="var(--neuro-bg-dot-soft, rgba(80, 82, 92, 0.16))" opacity="0.21" />
    <circle cx="994.32" cy="320.2" r="1.56" fill="var(--neuro-bg-dot-soft, rgba(80, 82, 92, 0.16))" opacity="0.16" />
    <circle cx="1045.21" cy="208.78" r="0.91" fill="var(--neuro-bg-dot, rgba(72, 105, 170, 0.28))" opacity="0.12" />
    <circle cx="797.91" cy="392.51" r="1" fill="var(--neuro-bg-dot, rgba(72, 105, 170, 0.28))" opacity="0.15" />
    <circle cx="858.4" cy="346.09" r="1.23" fill="var(--neuro-bg-dot-soft, rgba(80, 82, 92, 0.16))" opacity="0.34" />
    <circle cx="1048.01" cy="275.77" r="1.36" fill="var(--neuro-bg-dot-soft, rgba(80, 82, 92, 0.16))" opacity="0.1" />
    <circle cx="1045.89" cy="209.63" r="1.09" fill="var(--neuro-bg-dot, rgba(72, 105, 170, 0.28))" opacity="0.19" />
    <circle cx="760" cy="404.49" r="1.54" fill="var(--neuro-bg-dot, rgba(72, 105, 170, 0.28))" opacity="0.19" />
    <circle cx="947.41" cy="354.58" r="1.01" fill="var(--neuro-bg-dot, rgba(72, 105, 170, 0.28))" opacity="0.28" />
    <circle cx="1031.62" cy="288.23" r="1.33" fill="var(--neuro-bg-dot-soft, rgba(80, 82, 92, 0.16))" opacity="0.25" />
    <circle cx="1106.88" cy="203.51" r="1.29" fill="var(--neuro-bg-dot-accent, rgba(81, 70, 166, 0.42))" opacity="0.3" />
    <circle cx="817.74" cy="443.21" r="1.31" fill="var(--neuro-bg-dot-soft, rgba(80, 82, 92, 0.16))" opacity="0.2" />
    <circle cx="908.57" cy="359.03" r="0.98" fill="var(--neuro-bg-dot-soft, rgba(80, 82, 92, 0.16))" opacity="0.36" />
    <circle cx="991.86" cy="279.98" r="1.59" fill="var(--neuro-bg-dot-soft, rgba(80, 82, 92, 0.16))" opacity="0.23" />
    <circle cx="1058.49" cy="216.42" r="1.74" fill="var(--neuro-bg-dot, rgba(72, 105, 170, 0.28))" opacity="0.22" />
    <circle cx="861" cy="398.36" r="1.88" fill="var(--neuro-bg-dot-soft, rgba(80, 82, 92, 0.16))" opacity="0.15" />
    <circle cx="869.79" cy="351.28" r="1.35" fill="var(--neuro-bg-dot-soft, rgba(80, 82, 92, 0.16))" opacity="0.25" />
    <circle cx="1000.86" cy="274.79" r="1.27" fill="var(--neuro-bg-dot-soft, rgba(80, 82, 92, 0.16))" opacity="0.2" />
    <circle cx="1095.18" cy="198.5" r="1.84" fill="var(--neuro-bg-dot-soft, rgba(80, 82, 92, 0.16))" opacity="0.12" />
    <circle cx="794.96" cy="429.63" r="1.6" fill="var(--neuro-bg-dot-soft, rgba(80, 82, 92, 0.16))" opacity="0.23" />
    <circle cx="928.41" cy="370.86" r="1.9" fill="var(--neuro-bg-dot-accent, rgba(81, 70, 166, 0.42))" opacity="0.23" />
    <circle cx="988.88" cy="265.84" r="1.84" fill="var(--neuro-bg-dot-soft, rgba(80, 82, 92, 0.16))" opacity="0.2" />
    <circle cx="1141.39" cy="192.61" r="1.5" fill="var(--neuro-bg-dot, rgba(72, 105, 170, 0.28))" opacity="0.09" />
    <circle cx="760" cy="381.3" r="1.09" fill="var(--neuro-bg-dot-soft, rgba(80, 82, 92, 0.16))" opacity="0.2" />
    <circle cx="876.43" cy="290.66" r="1.64" fill="var(--neuro-bg-dot-soft, rgba(80, 82, 92, 0.16))" opacity="0.18" />
    <circle cx="827.98" cy="732.7" r="0.98" fill="var(--neuro-bg-dot-soft, rgba(80, 82, 92, 0.16))" opacity="0.06" />
    <circle cx="896.99" cy="797.91" r="1.44" fill="var(--neuro-bg-dot-soft, rgba(80, 82, 92, 0.16))" opacity="0.06" />
    <circle cx="868.82" cy="761.14" r="1.28" fill="var(--neuro-bg-dot-soft, rgba(80, 82, 92, 0.16))" opacity="0.08" />
    <circle cx="902.6" cy="765.15" r="0.86" fill="var(--neuro-bg-dot-soft, rgba(80, 82, 92, 0.16))" opacity="0.08" />
  </g>
</svg>
