<?xml version="1.0" encoding="UTF-8"?>
<svg xmlns="http://www.w3.org/2000/svg" viewBox="0 0 1200 900" width="1200" height="900" preserveAspectRatio="xMidYMid slice" aria-hidden="true" role="presentation">
  <!-- Zone system: left_title -> central_bridge -> right_anchor -> lower_echo -->
  <g class="neuro-background__field neuro-background__contours">
    <path d="M 39.27 192.93 C 56.87 188.85, 104.84 169.77, 144.88 168.46 C 184.92 167.14, 232.79 181.52, 279.52 185.05 C 326.25 188.57, 400.96 188.85, 425.24 189.61" fill="none" stroke="var(--neuro-bg-depth-secondary, rgba(126, 138, 164, 0.12))" stroke-width="0.95" stroke-linecap="round" stroke-linejoin="round" opacity="0.04" />
    <path d="M 45.94 206.03 C 62.43 207.97, 105.95 221.51, 144.88 217.65 C 183.81 213.79, 234.02 183.93, 279.52 182.87 C 325.02 181.81, 394.82 206.56, 417.88 211.3" fill="none" stroke="var(--neuro-bg-depth-secondary, rgba(126, 138, 164, 0.12))" stroke-width="0.97" stroke-linecap="round" stroke-linejoin="round" opacity="0.03" />
    <path d="M 564.81 204.61 C 577.25 207.59, 612.95 226.8, 639.44 222.5 C 665.93 218.19, 692.91 182.32, 723.76 178.81 C 754.61 175.3, 807.77 197.66, 824.57 201.43" fill="none" stroke="var(--neuro-bg-line-soft, rgba(120, 122, 132, 0.1))" stroke-width="0.99" stroke-linecap="round" stroke-linejoin="round" opacity="0.11" />
    <path d="M 584.92 168.9 C 594 172.15, 616.3 184.86, 639.44 188.38 C 662.58 191.91, 694.88 189.95, 723.76 190.04 C 752.64 190.12, 797.88 189.08, 812.71 188.89" fill="none" stroke="var(--neuro-bg-line-soft, rgba(120, 122, 132, 0.1))" stroke-width="0.87" stroke-linecap="round" stroke-linejoin="round" opacity="0.06" />
    <path d="M 561.94 333.97 C 574.86 332.75, 612.47 325.47, 639.44 326.64 C 666.41 327.81, 695.66 342.79, 723.76 340.99 C 751.86 339.19, 793.98 320.05, 808.02 315.86" fill="none" stroke="var(--neuro-bg-line-soft, rgba(120, 122, 132, 0.1))" stroke-width="0.9" stroke-linecap="round" stroke-linejoin="round" opacity="0.15" />
    <path d="M 563.27 301.87 C 575.96 300.61, 612.69 297.56, 639.44 294.31 C 666.19 291.06, 696.82 282, 723.76 282.38 C 750.7 282.76, 788.21 294.24, 801.1 296.61" fill="none" stroke="var(--neuro-bg-line-soft, rgba(120, 122, 132, 0.1))" stroke-width="0.88" stroke-linecap="round" stroke-linejoin="round" opacity="0.14" />
    <path d="M 766.51 466.03 C 784.56 466, 833.52 464.26, 874.8 465.86 C 916.08 467.47, 967.27 474.16, 1014.2 475.65 C 1061.13 477.15, 1132.66 474.96, 1156.35 474.82" fill="none" stroke="var(--neuro-bg-line-soft, rgba(120, 122, 132, 0.1))" stroke-width="0.86" stroke-linecap="round" stroke-linejoin="round" opacity="0.09" />
    <path d="M 763.12 568.31 C 781.73 571.27, 832.95 583.91, 874.8 586.06 C 916.65 588.2, 965.13 585.84, 1014.2 581.18 C 1063.27 576.52, 1143.36 561.95, 1169.2 558.11" fill="none" stroke="var(--neuro-bg-line, rgba(81, 70, 166, 0.12))" stroke-width="1.08" stroke-linecap="round" stroke-linejoin="round" opacity="0.33" />
    <path d="M 750.53 411.39 C 771.24 413.4, 830.85 420.83, 874.8 423.44 C 918.75 426.06, 963.98 426.37, 1014.2 427.08 C 1064.42 427.79, 1149.13 427.61, 1176.11 427.71" fill="none" stroke="var(--neuro-bg-line-soft, rgba(120, 122, 132, 0.1))" stroke-width="1.09" stroke-linecap="round" stroke-linejoin="round" opacity="0.12" />
    <path d="M 1024.1 54 C 1028.05 84.89, 1046.18 170.95, 1047.79 239.36 C 1049.4 307.77, 1036.27 385, 1033.76 464.44 C 1031.25 543.88, 1032.91 674.07, 1032.75 716" fill="none" stroke="var(--neuro-bg-line-soft, rgba(120, 122, 132, 0.1))" stroke-width="0.86" stroke-linecap="round" stroke-linejoin="round" opacity="0.33" />
    <path d="M 1104.59 54 C 1110.62 84.89, 1138.43 170.95, 1140.77 239.36 C 1143.12 307.77, 1124.23 385, 1118.66 464.44 C 1113.1 543.88, 1109.25 674.07, 1107.37 716" fill="none" stroke="var(--neuro-bg-line, rgba(81, 70, 166, 0.12))" stroke-width="1.14" stroke-linecap="round" stroke-linejoin="round" opacity="0.23" />
    <path d="M 774.18 122.48 C 790.95 124.41, 834.8 137.01, 874.8 134.07 C 914.8 131.13, 966.44 108.83, 1014.2 104.83 C 1061.96 100.82, 1136.85 109.17, 1161.37 110.04" fill="none" stroke="var(--neuro-bg-line-soft, rgba(120, 122, 132, 0.1))" stroke-width="0.98" stroke-linecap="round" stroke-linejoin="round" opacity="0.13" />
    <path d="M 771.67 483 C 788.86 487.03, 834.38 505.96, 874.8 507.18 C 915.22 508.4, 966.39 495.31, 1014.2 490.31 C 1062.01 485.31, 1137.08 479.38, 1161.66 477.19" fill="none" stroke="var(--neuro-bg-line-soft, rgba(120, 122, 132, 0.1))" stroke-width="1.06" stroke-linecap="round" stroke-linejoin="round" opacity="0.33" />
    <path d="M 759.83 502.25 C 778.99 504.45, 832.4 518.04, 874.8 515.45 C 917.2 512.85, 966.75 488.29, 1014.2 486.67 C 1061.65 485.05, 1135.29 502.55, 1159.51 505.72" fill="none" stroke="var(--neuro-bg-line, rgba(81, 70, 166, 0.12))" stroke-width="0.85" stroke-linecap="round" stroke-linejoin="round" opacity="0.32" />
    <path d="M 92.73 822.6 C 134.86 824.41, 250.46 832.1, 345.52 833.47 C 440.58 834.84, 550.69 831.42, 663.08 830.82 C 775.47 830.22, 960.41 830.03, 1019.87 829.88" fill="none" stroke="var(--neuro-bg-line-soft, rgba(120, 122, 132, 0.1))" stroke-width="1" stroke-linecap="round" stroke-linejoin="round" opacity="0.05" />
    <path d="M 85.84 746.36 C 129.12 742.01, 249.31 722.74, 345.52 720.26 C 441.73 717.78, 552.39 727.23, 663.08 731.46 C 773.77 735.7, 951.88 743.3, 1009.64 745.67" fill="none" stroke="var(--neuro-bg-line-soft, rgba(120, 122, 132, 0.1))" stroke-width="1.09" stroke-linecap="round" stroke-linejoin="round" opacity="0.06" />
    <g opacity="0.03"><line x1="257.07" y1="145.09" x2="334.85" y2="147.53" stroke="var(--neuro-bg-depth-secondary, rgba(126, 138, 164, 0.12))" stroke-width="0.84" stroke-linecap="round" /><line x1="257.07" y1="145.09" x2="292.05" y2="84.31" stroke="var(--neuro-bg-line-soft, rgba(120, 122, 132, 0.1))" stroke-width="0.78" stroke-linecap="round" /><line x1="269.62" y1="144.18" x2="275.62" y2="146.98" stroke="var(--neuro-bg-depth-secondary, rgba(126, 138, 164, 0.12))" stroke-width="0.7" stroke-linecap="round" /><line x1="285.18" y1="144.67" x2="291.18" y2="147.47" stroke="var(--neuro-bg-depth-secondary, rgba(126, 138, 164, 0.12))" stroke-width="0.7" stroke-linecap="round" /><line x1="300.74" y1="145.16" x2="306.74" y2="147.96" stroke="var(--neuro-bg-depth-secondary, rgba(126, 138, 164, 0.12))" stroke-width="0.7" stroke-linecap="round" /><line x1="316.29" y1="145.65" x2="322.29" y2="148.45" stroke="var(--neuro-bg-depth-secondary, rgba(126, 138, 164, 0.12))" stroke-width="0.7" stroke-linecap="round" /></g>
    <g opacity="0.07"><line x1="922.76" y1="748.98" x2="1006.21" y2="718.33" stroke="var(--neuro-bg-depth-secondary, rgba(126, 138, 164, 0.12))" stroke-width="0.84" stroke-linecap="round" /><line x1="922.76" y1="748.98" x2="932.28" y2="680.91" stroke="var(--neuro-bg-line-soft, rgba(120, 122, 132, 0.1))" stroke-width="0.78" stroke-linecap="round" /><line x1="947.58" y1="737.36" x2="953.58" y2="740.16" stroke="var(--neuro-bg-depth-secondary, rgba(126, 138, 164, 0.12))" stroke-width="0.7" stroke-linecap="round" /><line x1="975.4" y1="727.15" x2="981.4" y2="729.95" stroke="var(--neuro-bg-depth-secondary, rgba(126, 138, 164, 0.12))" stroke-width="0.7" stroke-linecap="round" /></g>
  </g>
  <g class="neuro-background__fragments neuro-background__grids">
    <g opacity="0.04"><rect x="137.92" y="135.84" width="6.98" height="6.98" rx="1.54" fill="var(--neuro-bg-grid-accent, rgba(112, 104, 200, 0.2))" /><rect x="159.34" y="136.84" width="5.36" height="5.36" rx="1.18" fill="var(--neuro-bg-grid, rgba(120, 122, 132, 0.1))" /><rect x="148.21" y="145.91" width="5.22" height="5.22" rx="1.15" fill="var(--neuro-bg-grid, rgba(120, 122, 132, 0.1))" /><rect x="161.38" y="148.54" width="4.75" height="4.75" rx="1.04" fill="var(--neuro-bg-grid, rgba(120, 122, 132, 0.1))" /><rect x="174.74" y="149.23" width="6.7" height="6.7" rx="1.47" fill="var(--neuro-bg-grid-accent, rgba(112, 104, 200, 0.2))" /><rect x="136.9" y="157.54" width="4.94" height="4.94" rx="1.09" fill="var(--neuro-bg-grid, rgba(120, 122, 132, 0.1))" /><rect x="173.51" y="155.79" width="6.84" height="6.84" rx="1.5" fill="var(--neuro-bg-grid, rgba(120, 122, 132, 0.1))" /></g>
    <g opacity="0.18"><rect x="1100.82" y="594.93" width="6.84" height="6.84" rx="1.51" fill="var(--neuro-bg-grid-accent, rgba(112, 104, 200, 0.2))" /><rect x="1134.66" y="594.31" width="4.45" height="4.45" rx="0.98" fill="var(--neuro-bg-depth-secondary, rgba(126, 138, 164, 0.12))" /><rect x="1151.75" y="594.95" width="4.14" height="4.14" rx="0.91" fill="var(--neuro-bg-grid, rgba(120, 122, 132, 0.1))" /><rect x="1169.57" y="594.95" width="6.33" height="6.33" rx="1.39" fill="var(--neuro-bg-grid, rgba(120, 122, 132, 0.1))" /><rect x="1099.81" y="606.33" width="5.61" height="5.61" rx="1.23" fill="var(--neuro-bg-depth-secondary, rgba(126, 138, 164, 0.12))" /><rect x="1119.33" y="605.43" width="5.28" height="5.28" rx="1.16" fill="var(--neuro-bg-depth-secondary, rgba(126, 138, 164, 0.12))" /><rect x="1136.42" y="607.81" width="4.94" height="4.94" rx="1.09" fill="var(--neuro-bg-depth-secondary, rgba(126, 138, 164, 0.12))" /><rect x="1168.18" y="607.92" width="7.12" height="7.12" rx="1.57" fill="var(--neuro-bg-depth-secondary, rgba(126, 138, 164, 0.12))" /></g>
    <g opacity="0.14"><rect x="1057.26" y="504.83" width="4.56" height="4.56" rx="1" fill="var(--neuro-bg-grid, rgba(120, 122, 132, 0.1))" /><rect x="1070.73" y="507.06" width="4.07" height="4.07" rx="0.9" fill="var(--neuro-bg-grid, rgba(120, 122, 132, 0.1))" /><rect x="1088.06" y="505.6" width="7.01" height="7.01" rx="1.54" fill="var(--neuro-bg-depth-secondary, rgba(126, 138, 164, 0.12))" /><rect x="1087.51" y="519.14" width="6.71" height="6.71" rx="1.48" fill="var(--neuro-bg-grid-accent, rgba(112, 104, 200, 0.2))" /><rect x="1071.61" y="531.74" width="4.06" height="4.06" rx="0.9" fill="var(--neuro-bg-depth-secondary, rgba(126, 138, 164, 0.12))" /><rect x="1087.06" y="529.67" width="6.15" height="6.15" rx="1.35" fill="var(--neuro-bg-grid, rgba(120, 122, 132, 0.1))" /></g>
    <g opacity="0.27"><rect x="1076.64" y="213.16" width="6.6" height="6.6" rx="1.45" fill="var(--neuro-bg-depth-secondary, rgba(126, 138, 164, 0.12))" /><rect x="1090.97" y="215.2" width="4.27" height="4.27" rx="0.94" fill="var(--neuro-bg-grid, rgba(120, 122, 132, 0.1))" /><rect x="1103.56" y="213.51" width="5.15" height="5.15" rx="1.13" fill="var(--neuro-bg-depth-secondary, rgba(126, 138, 164, 0.12))" /><rect x="1089.86" y="225.02" width="4.98" height="4.98" rx="1.1" fill="var(--neuro-bg-grid, rgba(120, 122, 132, 0.1))" /><rect x="1104.7" y="226.83" width="6.45" height="6.45" rx="1.42" fill="var(--neuro-bg-depth-secondary, rgba(126, 138, 164, 0.12))" /><rect x="1079.59" y="234.72" width="4.92" height="4.92" rx="1.08" fill="var(--neuro-bg-grid, rgba(120, 122, 132, 0.1))" /><rect x="1089.12" y="235.45" width="7.05" height="7.05" rx="1.55" fill="var(--neuro-bg-grid, rgba(120, 122, 132, 0.1))" /></g>
    <g opacity="0.04"><rect x="584.59" y="724.83" width="5.51" height="5.51" rx="1.21" fill="var(--neuro-bg-depth-secondary, rgba(126, 138, 164, 0.12))" /></g>
    <rect x="153.58" y="174.19" width="6.86" height="1.95" rx="0.98" fill="var(--neuro-bg-depth-secondary, rgba(126, 138, 164, 0.12))" opacity="0.03" transform="rotate(-9.5 157.01 175.17)" />
    <rect x="219.16" y="155.46" width="11.86" height="2.18" rx="1.09" fill="var(--neuro-bg-depth, rgba(17, 17, 17, 0.08))" opacity="0.08" transform="rotate(-4.04 225.09 156.55)" />
    <rect x="62.46" y="206.21" width="8.79" height="2.06" rx="1.03" fill="var(--neuro-bg-depth-secondary, rgba(126, 138, 164, 0.12))" opacity="0.07" transform="rotate(-7.34 66.86 207.24)" />
    <rect x="201.35" y="196.21" width="14.52" height="2.39" rx="1.2" fill="var(--neuro-bg-depth, rgba(17, 17, 17, 0.08))" opacity="0.04" transform="rotate(8.95 208.61 197.4)" />
    <rect x="183.13" y="143.74" width="8.25" height="2.2" rx="1.1" fill="var(--neuro-bg-depth-secondary, rgba(126, 138, 164, 0.12))" opacity="0.05" transform="rotate(3.74 187.26 144.84)" />
    <rect x="160.37" y="189.82" width="10.59" height="1.6" rx="0.8" fill="var(--neuro-bg-depth, rgba(17, 17, 17, 0.08))" opacity="0.06" transform="rotate(5.03 165.67 190.62)" />
    <rect x="380.48" y="189.06" width="10.08" height="1.9" rx="0.95" fill="var(--neuro-bg-depth-secondary, rgba(126, 138, 164, 0.12))" opacity="0.07" transform="rotate(3.82 385.51 190.01)" />
    <rect x="242.87" y="106.24" width="7.19" height="1.4" rx="0.7" fill="var(--neuro-bg-depth, rgba(17, 17, 17, 0.08))" opacity="0.07" transform="rotate(11.68 246.47 106.94)" />
    <rect x="332.78" y="203.55" width="14.26" height="1.23" rx="0.62" fill="var(--neuro-bg-depth, rgba(17, 17, 17, 0.08))" opacity="0.06" transform="rotate(6.05 339.91 204.17)" />
    <rect x="143.49" y="166.81" width="9.9" height="1.61" rx="0.8" fill="var(--neuro-bg-depth, rgba(17, 17, 17, 0.08))" opacity="0.06" transform="rotate(-8.74 148.44 167.61)" />
    <rect x="287.76" y="36.18" width="8.07" height="2.15" rx="1.08" fill="var(--neuro-bg-depth-secondary, rgba(126, 138, 164, 0.12))" opacity="0.07" transform="rotate(6.35 291.79 37.26)" />
    <rect x="106.23" y="125.59" width="9.48" height="1.12" rx="0.56" fill="var(--neuro-bg-depth-secondary, rgba(126, 138, 164, 0.12))" opacity="0.05" transform="rotate(8.43 110.98 126.15)" />
    <rect x="74.71" y="82.67" width="6.04" height="1.29" rx="0.65" fill="var(--neuro-bg-depth, rgba(17, 17, 17, 0.08))" opacity="0.04" transform="rotate(10.53 77.73 83.32)" />
    <rect x="119.15" y="122.39" width="11.24" height="1.69" rx="0.84" fill="var(--neuro-bg-depth, rgba(17, 17, 17, 0.08))" opacity="0.08" transform="rotate(-11.08 124.77 123.24)" />
    <rect x="195.6" y="131.74" width="12.5" height="1.74" rx="0.87" fill="var(--neuro-bg-depth-secondary, rgba(126, 138, 164, 0.12))" opacity="0.07" transform="rotate(-0.93 201.85 132.62)" />
    <rect x="362.83" y="58.82" width="7.74" height="1.86" rx="0.93" fill="var(--neuro-bg-depth-secondary, rgba(126, 138, 164, 0.12))" opacity="0.03" transform="rotate(-9.02 366.7 59.75)" />
    <rect x="107.99" y="92.19" width="13.83" height="1.86" rx="0.93" fill="var(--neuro-bg-depth, rgba(17, 17, 17, 0.08))" opacity="0.06" transform="rotate(-2.48 114.91 93.12)" />
    <rect x="420.57" y="145.43" width="12.29" height="1.09" rx="0.55" fill="var(--neuro-bg-depth, rgba(17, 17, 17, 0.08))" opacity="0.04" transform="rotate(10.94 426.71 145.98)" />
    <rect x="312.61" y="35.08" width="14.08" height="1.3" rx="0.65" fill="var(--neuro-bg-depth-secondary, rgba(126, 138, 164, 0.12))" opacity="0.06" transform="rotate(-10.53 319.65 35.73)" />
    <rect x="339.98" y="123.11" width="12.05" height="1.99" rx="0.99" fill="var(--neuro-bg-depth-secondary, rgba(126, 138, 164, 0.12))" opacity="0.06" transform="rotate(-4.28 346.01 124.11)" />
    <rect x="243.91" y="74.19" width="8.62" height="2.14" rx="1.07" fill="var(--neuro-bg-depth, rgba(17, 17, 17, 0.08))" opacity="0.04" transform="rotate(4.31 248.22 75.25)" />
    <rect x="218.3" y="184.24" width="9.3" height="1.01" rx="0.5" fill="var(--neuro-bg-depth, rgba(17, 17, 17, 0.08))" opacity="0.07" transform="rotate(5.72 222.95 184.74)" />
    <rect x="398.35" y="107.27" width="10.26" height="1.86" rx="0.93" fill="var(--neuro-bg-depth-secondary, rgba(126, 138, 164, 0.12))" opacity="0.07" transform="rotate(6.2 403.48 108.2)" />
    <rect x="413.02" y="75.87" width="6.17" height="1.23" rx="0.61" fill="var(--neuro-bg-depth-secondary, rgba(126, 138, 164, 0.12))" opacity="0.06" transform="rotate(10.76 416.11 76.49)" />
    <rect x="70.51" y="206.54" width="9.54" height="2.29" rx="1.14" fill="var(--neuro-bg-depth-secondary, rgba(126, 138, 164, 0.12))" opacity="0.04" transform="rotate(4.21 75.28 207.68)" />
    <rect x="359.79" y="76.29" width="10.9" height="1.77" rx="0.89" fill="var(--neuro-bg-depth-secondary, rgba(126, 138, 164, 0.12))" opacity="0.07" transform="rotate(1.59 365.24 77.17)" />
    <rect x="239.42" y="143.95" width="11.55" height="1.61" rx="0.8" fill="var(--neuro-bg-depth-secondary, rgba(126, 138, 164, 0.12))" opacity="0.05" transform="rotate(11.87 245.2 144.75)" />
    <rect x="240.83" y="45.72" width="9.94" height="2.07" rx="1.04" fill="var(--neuro-bg-depth-secondary, rgba(126, 138, 164, 0.12))" opacity="0.06" transform="rotate(-2.08 245.8 46.76)" />
    <rect x="212.95" y="196.45" width="8.67" height="2.28" rx="1.14" fill="var(--neuro-bg-depth-secondary, rgba(126, 138, 164, 0.12))" opacity="0.07" transform="rotate(-0.06 217.28 197.59)" />
    <rect x="244.95" y="152.72" width="14.88" height="1.28" rx="0.64" fill="var(--neuro-bg-depth-secondary, rgba(126, 138, 164, 0.12))" opacity="0.07" transform="rotate(8 252.39 153.36)" />
    <rect x="137.67" y="29.35" width="14.13" height="2.36" rx="1.18" fill="var(--neuro-bg-depth, rgba(17, 17, 17, 0.08))" opacity="0.06" transform="rotate(-2.47 144.74 30.53)" />
    <rect x="132.13" y="159.57" width="14.09" height="1.38" rx="0.69" fill="var(--neuro-bg-depth-secondary, rgba(126, 138, 164, 0.12))" opacity="0.05" transform="rotate(-5.64 139.17 160.25)" />
    <rect x="377.03" y="25.4" width="6.22" height="1.26" rx="0.63" fill="var(--neuro-bg-depth-secondary, rgba(126, 138, 164, 0.12))" opacity="0.07" transform="rotate(6.18 380.14 26.03)" />
    <rect x="309.53" y="205.19" width="11.87" height="1.03" rx="0.52" fill="var(--neuro-bg-depth-secondary, rgba(126, 138, 164, 0.12))" opacity="0.03" transform="rotate(-9.16 315.46 205.71)" />
  </g>
  <g class="neuro-background__trajectory">
    <path d="M 606 494 C 618.23 485.45, 648.68 454.46, 679.36 442.72 C 710.03 430.97, 757.27 436.36, 790.05 423.55 C 822.84 410.74, 846.99 380.55, 876.07 365.86 C 905.16 351.17, 936.23 355.22, 964.54 335.42 C 992.86 315.62, 1020.98 272.87, 1045.95 247.07 C 1070.91 221.26, 1092.99 202.1, 1114.34 180.59 C 1135.68 159.08, 1164.06 128.43, 1174 118" fill="none" stroke="var(--neuro-bg-trajectory, rgba(81, 70, 166, 0.34))" stroke-width="2.1" stroke-linecap="round" stroke-linejoin="round" opacity="0.94" />
    <path d="M 558.79 519.24 C 565.8 512.62, 587.27 490.61, 600.9 479.51 C 614.53 468.41, 639.72 450.24, 640.57 452.66 C 641.43 455.07, 611.76 487.11, 606 494" fill="none" stroke="var(--neuro-bg-depth-secondary, rgba(126, 138, 164, 0.12))" stroke-width="1.24" stroke-linecap="round" stroke-linejoin="round" opacity="0.42" />
    <g class="neuro-background__nodes"><circle cx="679.36" cy="442.72" r="3.35" fill="var(--neuro-bg-node, rgba(72, 105, 170, 0.28))" opacity="0.33" /><circle cx="790.05" cy="423.55" r="3.23" fill="var(--neuro-bg-node, rgba(72, 105, 170, 0.28))" opacity="0.46" /><circle cx="876.07" cy="365.86" r="3.44" fill="var(--neuro-bg-node, rgba(72, 105, 170, 0.28))" opacity="0.38" /><circle cx="1045.95" cy="247.07" r="3.03" fill="var(--neuro-bg-node, rgba(72, 105, 170, 0.28))" opacity="0.27" /><circle cx="1114.34" cy="180.59" r="3.16" fill="var(--neuro-bg-node, rgba(72, 105, 170, 0.28))" opacity="0.29" /><circle cx="1174" cy="118" r="3.41" fill="var(--neuro-bg-node, rgba(72, 105, 170, 0.28))" opacity="0.48" /></g>
  </g>
  <g class="neuro-background__cloud neuro-background__dots">
    <circle cx="645.22" cy="474.08" r="1.29" fill="var(--neuro-bg-dot-soft, rgba(80, 82, 92, 0.16))" opacity="0.12" />
    <circle cx="685.82" cy="426.42" r="1.44" fill="var(--neuro-bg-dot-soft, rgba(80, 82, 92, 0.16))" opacity="0.06" />
    <circle cx="631.15" cy="482.21" r="1.19" fill="var(--neuro-bg-dot-soft, rgba(80, 82, 92, 0.16))" opacity="0.12" />
    <circle cx="659.6" cy="443.79" r="1.04" fill="var(--neuro-bg-dot-soft, rgba(80, 82, 92, 0.16))" opacity="0.06" />
    <circle cx="624.52" cy="486.22" r="1.4" fill="var(--neuro-bg-dot, rgba(72, 105, 170, 0.28))" opacity="0.14" />
    <circle cx="670.34" cy="422.19" r="1.16" fill="var(--neuro-bg-dot-soft, rgba(80, 82, 92, 0.16))" opacity="0.11" />
    <circle cx="625.28" cy="467.83" r="1.39" fill="var(--neuro-bg-dot, rgba(72, 105, 170, 0.28))" opacity="0.12" />
    <circle cx="717.35" cy="452.17" r="1.01" fill="var(--neuro-bg-dot, rgba(72, 105, 170, 0.28))" opacity="0.13" />
    <circle cx="632.73" cy="507.55" r="1.36" fill="var(--neuro-bg-dot, rgba(72, 105, 170, 0.28))" opacity="0.07" />
    <circle cx="700.83" cy="429.85" r="1.28" fill="var(--neuro-bg-dot, rgba(72, 105, 170, 0.28))" opacity="0.08" />
    <circle cx="625.73" cy="517.73" r="0.9" fill="var(--neuro-bg-dot-soft, rgba(80, 82, 92, 0.16))" opacity="0.05" />
    <circle cx="678.61" cy="439.03" r="1" fill="var(--neuro-bg-dot-soft, rgba(80, 82, 92, 0.16))" opacity="0.06" />
    <circle cx="623.37" cy="519.25" r="1.08" fill="var(--neuro-bg-dot, rgba(72, 105, 170, 0.28))" opacity="0.15" />
    <circle cx="683.78" cy="446.7" r="1.06" fill="var(--neuro-bg-dot-soft, rgba(80, 82, 92, 0.16))" opacity="0.12" />
    <circle cx="625.25" cy="504.65" r="0.87" fill="var(--neuro-bg-dot-soft, rgba(80, 82, 92, 0.16))" opacity="0.12" />
    <circle cx="675.55" cy="404" r="1.3" fill="var(--neuro-bg-dot-soft, rgba(80, 82, 92, 0.16))" opacity="0.12" />
    <circle cx="630.45" cy="505.73" r="1.37" fill="var(--neuro-bg-dot, rgba(72, 105, 170, 0.28))" opacity="0.11" />
    <circle cx="653.02" cy="456.2" r="0.94" fill="var(--neuro-bg-dot-soft, rgba(80, 82, 92, 0.16))" opacity="0.07" />
    <circle cx="641.55" cy="496.6" r="0.93" fill="var(--neuro-bg-dot, rgba(72, 105, 170, 0.28))" opacity="0.05" />
    <circle cx="686.02" cy="449.57" r="1.23" fill="var(--neuro-bg-dot-soft, rgba(80, 82, 92, 0.16))" opacity="0.15" />
    <circle cx="688.73" cy="470.64" r="0.99" fill="var(--neuro-bg-dot-soft, rgba(80, 82, 92, 0.16))" opacity="0.07" />
    <circle cx="646.45" cy="429.06" r="1.33" fill="var(--neuro-bg-dot-soft, rgba(80, 82, 92, 0.16))" opacity="0.07" />
    <circle cx="620.36" cy="500.69" r="0.99" fill="var(--neuro-bg-dot, rgba(72, 105, 170, 0.28))" opacity="0.1" />
    <circle cx="655.85" cy="446.15" r="1.24" fill="var(--neuro-bg-dot, rgba(72, 105, 170, 0.28))" opacity="0.14" />
    <circle cx="650.03" cy="487.32" r="1.11" fill="var(--neuro-bg-dot-soft, rgba(80, 82, 92, 0.16))" opacity="0.1" />
    <circle cx="706.99" cy="448.64" r="1.17" fill="var(--neuro-bg-dot, rgba(72, 105, 170, 0.28))" opacity="0.06" />
    <circle cx="632.87" cy="492.2" r="0.86" fill="var(--neuro-bg-dot-soft, rgba(80, 82, 92, 0.16))" opacity="0.06" />
    <circle cx="660.89" cy="475.1" r="1.25" fill="var(--neuro-bg-dot, rgba(72, 105, 170, 0.28))" opacity="0.09" />
    <circle cx="760" cy="439.51" r="1.12" fill="var(--neuro-bg-dot-accent, rgba(81, 70, 166, 0.42))" opacity="0.17" />
    <circle cx="820.57" cy="409.44" r="0.98" fill="var(--neuro-bg-dot-soft, rgba(80, 82, 92, 0.16))" opacity="0.25" />
    <circle cx="935.05" cy="353.65" r="1.69" fill="var(--neuro-bg-dot, rgba(72, 105, 170, 0.28))" opacity="0.12" />
    <circle cx="1103.89" cy="271.61" r="1.57" fill="var(--neuro-bg-dot-soft, rgba(80, 82, 92, 0.16))" opacity="0.09" />
    <circle cx="1082.5" cy="142.68" r="1.66" fill="var(--neuro-bg-dot-soft, rgba(80, 82, 92, 0.16))" opacity="0.21" />
    <circle cx="1170" cy="98.38" r="1.45" fill="var(--neuro-bg-dot-soft, rgba(80, 82, 92, 0.16))" opacity="0.31" />
    <circle cx="848.9" cy="403.08" r="1.21" fill="var(--neuro-bg-dot, rgba(72, 105, 170, 0.28))" opacity="0.16" />
    <circle cx="830.01" cy="383.07" r="1.86" fill="var(--neuro-bg-dot-soft, rgba(80, 82, 92, 0.16))" opacity="0.11" />
    <circle cx="891.16" cy="406.78" r="1.05" fill="var(--neuro-bg-dot-accent, rgba(81, 70, 166, 0.42))" opacity="0.11" />
    <circle cx="1126.54" cy="199.58" r="1.58" fill="var(--neuro-bg-dot, rgba(72, 105, 170, 0.28))" opacity="0.15" />
    <circle cx="1089.78" cy="146.06" r="1.36" fill="var(--neuro-bg-dot-accent, rgba(81, 70, 166, 0.42))" opacity="0.24" />
    <circle cx="1170" cy="104.49" r="1" fill="var(--neuro-bg-dot-soft, rgba(80, 82, 92, 0.16))" opacity="0.16" />
    <circle cx="819.9" cy="405.82" r="1.64" fill="var(--neuro-bg-dot, rgba(72, 105, 170, 0.28))" opacity="0.31" />
    <circle cx="859.05" cy="359.39" r="1.36" fill="var(--neuro-bg-dot, rgba(72, 105, 170, 0.28))" opacity="0.33" />
    <circle cx="981.74" cy="363.56" r="1.41" fill="var(--neuro-bg-dot, rgba(72, 105, 170, 0.28))" opacity="0.35" />
    <circle cx="1035.31" cy="218.81" r="1.91" fill="var(--neuro-bg-dot, rgba(72, 105, 170, 0.28))" opacity="0.27" />
    <circle cx="1119.18" cy="129.9" r="1.14" fill="var(--neuro-bg-dot-soft, rgba(80, 82, 92, 0.16))" opacity="0.27" />
    <circle cx="1170" cy="112.74" r="0.91" fill="var(--neuro-bg-dot-soft, rgba(80, 82, 92, 0.16))" opacity="0.33" />
    <circle cx="760" cy="384.83" r="0.92" fill="var(--neuro-bg-dot-soft, rgba(80, 82, 92, 0.16))" opacity="0.26" />
    <circle cx="934.6" cy="335.58" r="1.01" fill="var(--neuro-bg-dot-soft, rgba(80, 82, 92, 0.16))" opacity="0.14" />
    <circle cx="962.91" cy="300.9" r="1.1" fill="var(--neuro-bg-dot-soft, rgba(80, 82, 92, 0.16))" opacity="0.26" />
    <circle cx="1022.12" cy="255.04" r="1.49" fill="var(--neuro-bg-dot-soft, rgba(80, 82, 92, 0.16))" opacity="0.36" />
    <circle cx="1116.72" cy="181.49" r="1.41" fill="var(--neuro-bg-dot-soft, rgba(80, 82, 92, 0.16))" opacity="0.3" />
    <circle cx="1123.26" cy="121.67" r="1.25" fill="var(--neuro-bg-dot, rgba(72, 105, 170, 0.28))" opacity="0.09" />
    <circle cx="839.98" cy="444.48" r="1.08" fill="var(--neuro-bg-dot-soft, rgba(80, 82, 92, 0.16))" opacity="0.2" />
    <circle cx="848.91" cy="325.09" r="1.81" fill="var(--neuro-bg-dot, rgba(72, 105, 170, 0.28))" opacity="0.19" />
    <circle cx="936.82" cy="340.2" r="0.91" fill="var(--neuro-bg-dot-soft, rgba(80, 82, 92, 0.16))" opacity="0.19" />
    <circle cx="1013.52" cy="241.03" r="1.36" fill="var(--neuro-bg-dot-soft, rgba(80, 82, 92, 0.16))" opacity="0.27" />
    <circle cx="1072.27" cy="183.88" r="1.86" fill="var(--neuro-bg-dot, rgba(72, 105, 170, 0.28))" opacity="0.17" />
    <circle cx="1137.25" cy="81.15" r="1.59" fill="var(--neuro-bg-dot, rgba(72, 105, 170, 0.28))" opacity="0.11" />
    <circle cx="767.39" cy="404.31" r="1.46" fill="var(--neuro-bg-dot-soft, rgba(80, 82, 92, 0.16))" opacity="0.26" />
    <circle cx="867.24" cy="383.55" r="1.38" fill="var(--neuro-bg-dot, rgba(72, 105, 170, 0.28))" opacity="0.36" />
    <circle cx="1012.45" cy="366.5" r="1.3" fill="var(--neuro-bg-dot, rgba(72, 105, 170, 0.28))" opacity="0.11" />
    <circle cx="1026.16" cy="251.22" r="1.36" fill="var(--neuro-bg-dot, rgba(72, 105, 170, 0.28))" opacity="0.35" />
    <circle cx="1068.95" cy="193.83" r="1.88" fill="var(--neuro-bg-dot-accent, rgba(81, 70, 166, 0.42))" opacity="0.15" />
    <circle cx="1170" cy="154.38" r="1.29" fill="var(--neuro-bg-dot, rgba(72, 105, 170, 0.28))" opacity="0.15" />
    <circle cx="807.36" cy="389.2" r="1.32" fill="var(--neuro-bg-dot-soft, rgba(80, 82, 92, 0.16))" opacity="0.33" />
    <circle cx="911.98" cy="352.07" r="1.62" fill="var(--neuro-bg-dot-soft, rgba(80, 82, 92, 0.16))" opacity="0.3" />
    <circle cx="1018.8" cy="290.85" r="1.69" fill="var(--neuro-bg-dot-soft, rgba(80, 82, 92, 0.16))" opacity="0.26" />
    <circle cx="1030.39" cy="225.21" r="1.31" fill="var(--neuro-bg-dot, rgba(72, 105, 170, 0.28))" opacity="0.19" />
    <circle cx="1043.14" cy="188.64" r="1.1" fill="var(--neuro-bg-dot-soft, rgba(80, 82, 92, 0.16))" opacity="0.09" />
    <circle cx="1155.02" cy="137.77" r="1.86" fill="var(--neuro-bg-dot-soft, rgba(80, 82, 92, 0.16))" opacity="0.21" />
    <circle cx="765.95" cy="418.49" r="1.78" fill="var(--neuro-bg-dot, rgba(72, 105, 170, 0.28))" opacity="0.27" />
    <circle cx="893.42" cy="384.25" r="1.87" fill="var(--neuro-bg-dot, rgba(72, 105, 170, 0.28))" opacity="0.14" />
    <circle cx="964.32" cy="362.57" r="1.16" fill="var(--neuro-bg-dot, rgba(72, 105, 170, 0.28))" opacity="0.15" />
    <circle cx="1022.3" cy="231.99" r="1.29" fill="var(--neuro-bg-dot-accent, rgba(81, 70, 166, 0.42))" opacity="0.13" />
    <circle cx="1135.67" cy="158.38" r="1.72" fill="var(--neuro-bg-dot, rgba(72, 105, 170, 0.28))" opacity="0.32" />
    <circle cx="1143.46" cy="155.83" r="1.54" fill="var(--neuro-bg-dot, rgba(72, 105, 170, 0.28))" opacity="0.2" />
    <circle cx="760" cy="429.48" r="1.23" fill="var(--neuro-bg-dot-soft, rgba(80, 82, 92, 0.16))" opacity="0.25" />
    <circle cx="780.47" cy="347.78" r="1.94" fill="var(--neuro-bg-dot-soft, rgba(80, 82, 92, 0.16))" opacity="0.2" />
    <circle cx="954.22" cy="334.18" r="1.01" fill="var(--neuro-bg-dot-soft, rgba(80, 82, 92, 0.16))" opacity="0.35" />
    <circle cx="1013.68" cy="194.86" r="0.98" fill="var(--neuro-bg-dot, rgba(72, 105, 170, 0.28))" opacity="0.09" />
    <circle cx="1139.18" cy="195.52" r="1.08" fill="var(--neuro-bg-dot, rgba(72, 105, 170, 0.28))" opacity="0.11" />
    <circle cx="1170" cy="111.3" r="0.95" fill="var(--neuro-bg-dot-soft, rgba(80, 82, 92, 0.16))" opacity="0.22" />
    <circle cx="772.73" cy="418.42" r="1.43" fill="var(--neuro-bg-dot, rgba(72, 105, 170, 0.28))" opacity="0.34" />
    <circle cx="894.17" cy="337.42" r="1.62" fill="var(--neuro-bg-dot-soft, rgba(80, 82, 92, 0.16))" opacity="0.22" />
    <circle cx="975.99" cy="344.95" r="1.01" fill="var(--neuro-bg-dot-accent, rgba(81, 70, 166, 0.42))" opacity="0.15" />
    <circle cx="1011.52" cy="272.06" r="1.8" fill="var(--neuro-bg-dot-soft, rgba(80, 82, 92, 0.16))" opacity="0.23" />
    <circle cx="1131.92" cy="172.87" r="1.01" fill="var(--neuro-bg-dot-soft, rgba(80, 82, 92, 0.16))" opacity="0.15" />
    <circle cx="1153.51" cy="133.22" r="1.35" fill="var(--neuro-bg-dot, rgba(72, 105, 170, 0.28))" opacity="0.31" />
    <circle cx="806.53" cy="392.59" r="1.4" fill="var(--neuro-bg-dot, rgba(72, 105, 170, 0.28))" opacity="0.36" />
    <circle cx="883.01" cy="406.03" r="1.63" fill="var(--neuro-bg-dot-accent, rgba(81, 70, 166, 0.42))" opacity="0.24" />
    <circle cx="971.18" cy="351.74" r="1.51" fill="var(--neuro-bg-dot-soft, rgba(80, 82, 92, 0.16))" opacity="0.29" />
    <circle cx="1034.63" cy="218.84" r="0.95" fill="var(--neuro-bg-dot-soft, rgba(80, 82, 92, 0.16))" opacity="0.32" />
    <circle cx="1106.6" cy="176.4" r="1.11" fill="var(--neuro-bg-dot, rgba(72, 105, 170, 0.28))" opacity="0.24" />
    <circle cx="1170" cy="177.84" r="1.93" fill="var(--neuro-bg-dot-soft, rgba(80, 82, 92, 0.16))" opacity="0.17" />
    <circle cx="806.25" cy="470.41" r="1.64" fill="var(--neuro-bg-dot, rgba(72, 105, 170, 0.28))" opacity="0.25" />
    <circle cx="846.01" cy="379.91" r="1.66" fill="var(--neuro-bg-dot, rgba(72, 105, 170, 0.28))" opacity="0.12" />
    <circle cx="956.54" cy="315.61" r="1.86" fill="var(--neuro-bg-dot, rgba(72, 105, 170, 0.28))" opacity="0.24" />
    <circle cx="1013.57" cy="266.93" r="1.87" fill="var(--neuro-bg-dot, rgba(72, 105, 170, 0.28))" opacity="0.28" />
    <circle cx="1122.7" cy="152.99" r="1.38" fill="var(--neuro-bg-dot, rgba(72, 105, 170, 0.28))" opacity="0.16" />
    <circle cx="1170" cy="145.55" r="1.1" fill="var(--neuro-bg-dot-soft, rgba(80, 82, 92, 0.16))" opacity="0.17" />
    <circle cx="812.27" cy="454.65" r="1.8" fill="var(--neuro-bg-dot, rgba(72, 105, 170, 0.28))" opacity="0.27" />
    <circle cx="914.65" cy="339.8" r="1.22" fill="var(--neuro-bg-dot, rgba(72, 105, 170, 0.28))" opacity="0.17" />
    <circle cx="1033.07" cy="339.58" r="1.11" fill="var(--neuro-bg-dot, rgba(72, 105, 170, 0.28))" opacity="0.16" />
    <circle cx="1040.91" cy="223.56" r="1.36" fill="var(--neuro-bg-dot, rgba(72, 105, 170, 0.28))" opacity="0.09" />
    <circle cx="1098.48" cy="173.95" r="1.06" fill="var(--neuro-bg-dot-soft, rgba(80, 82, 92, 0.16))" opacity="0.1" />
    <circle cx="1109.9" cy="87.67" r="1.58" fill="var(--neuro-bg-dot-soft, rgba(80, 82, 92, 0.16))" opacity="0.34" />
    <circle cx="806.72" cy="441.39" r="1.91" fill="var(--neuro-bg-dot-soft, rgba(80, 82, 92, 0.16))" opacity="0.28" />
    <circle cx="908.1" cy="341.16" r="1.64" fill="var(--neuro-bg-dot-soft, rgba(80, 82, 92, 0.16))" opacity="0.15" />
    <circle cx="1011.11" cy="350.01" r="1.05" fill="var(--neuro-bg-dot-soft, rgba(80, 82, 92, 0.16))" opacity="0.21" />
    <circle cx="1079.27" cy="242.28" r="1.4" fill="var(--neuro-bg-dot, rgba(72, 105, 170, 0.28))" opacity="0.15" />
    <circle cx="1052.94" cy="170.84" r="1" fill="var(--neuro-bg-dot-soft, rgba(80, 82, 92, 0.16))" opacity="0.1" />
    <circle cx="1164.82" cy="92.61" r="1.44" fill="var(--neuro-bg-dot, rgba(72, 105, 170, 0.28))" opacity="0.23" />
    <circle cx="799.13" cy="389.97" r="1.64" fill="var(--neuro-bg-dot-soft, rgba(80, 82, 92, 0.16))" opacity="0.09" />
    <circle cx="858.34" cy="367.7" r="1.05" fill="var(--neuro-bg-dot, rgba(72, 105, 170, 0.28))" opacity="0.26" />
    <circle cx="915.27" cy="285.97" r="1.01" fill="var(--neuro-bg-dot-accent, rgba(81, 70, 166, 0.42))" opacity="0.27" />
    <circle cx="1028.69" cy="252.55" r="1.23" fill="var(--neuro-bg-dot-soft, rgba(80, 82, 92, 0.16))" opacity="0.35" />
    <circle cx="1095.31" cy="199.31" r="1.87" fill="var(--neuro-bg-dot-accent, rgba(81, 70, 166, 0.42))" opacity="0.31" />
    <circle cx="1120.04" cy="165.76" r="1.57" fill="var(--neuro-bg-dot-soft, rgba(80, 82, 92, 0.16))" opacity="0.23" />
    <circle cx="797.63" cy="422.34" r="1.26" fill="var(--neuro-bg-dot-accent, rgba(81, 70, 166, 0.42))" opacity="0.28" />
    <circle cx="929.97" cy="365.65" r="1.81" fill="var(--neuro-bg-dot, rgba(72, 105, 170, 0.28))" opacity="0.26" />
    <circle cx="931.96" cy="346.1" r="1.73" fill="var(--neuro-bg-dot-accent, rgba(81, 70, 166, 0.42))" opacity="0.25" />
    <circle cx="1108.24" cy="236.88" r="1.61" fill="var(--neuro-bg-dot, rgba(72, 105, 170, 0.28))" opacity="0.1" />
    <circle cx="1115.6" cy="226.38" r="1.84" fill="var(--neuro-bg-dot, rgba(72, 105, 170, 0.28))" opacity="0.12" />
    <circle cx="1163.57" cy="112.43" r="1.15" fill="var(--neuro-bg-dot-accent, rgba(81, 70, 166, 0.42))" opacity="0.2" />
    <circle cx="762.43" cy="423.52" r="1.58" fill="var(--neuro-bg-dot, rgba(72, 105, 170, 0.28))" opacity="0.23" />
    <circle cx="814.16" cy="398.85" r="1.03" fill="var(--neuro-bg-dot, rgba(72, 105, 170, 0.28))" opacity="0.19" />
    <circle cx="1008.23" cy="329.85" r="1.44" fill="var(--neuro-bg-dot, rgba(72, 105, 170, 0.28))" opacity="0.35" />
    <circle cx="1060.88" cy="211.3" r="1.07" fill="var(--neuro-bg-dot-soft, rgba(80, 82, 92, 0.16))" opacity="0.18" />
    <circle cx="1166.92" cy="186.45" r="1.93" fill="var(--neuro-bg-dot-soft, rgba(80, 82, 92, 0.16))" opacity="0.16" />
    <circle cx="1138.47" cy="128.29" r="1.34" fill="var(--neuro-bg-dot, rgba(72, 105, 170, 0.28))" opacity="0.3" />
    <circle cx="850.35" cy="409.35" r="1.55" fill="var(--neuro-bg-dot, rgba(72, 105, 170, 0.28))" opacity="0.32" />
    <circle cx="918.28" cy="360.27" r="1.5" fill="var(--neuro-bg-dot-soft, rgba(80, 82, 92, 0.16))" opacity="0.29" />
    <circle cx="920.96" cy="373.2" r="1.38" fill="var(--neuro-bg-dot-soft, rgba(80, 82, 92, 0.16))" opacity="0.24" />
    <circle cx="964.62" cy="262.67" r="1.69" fill="var(--neuro-bg-dot, rgba(72, 105, 170, 0.28))" opacity="0.34" />
    <circle cx="1113.41" cy="142.77" r="1.91" fill="var(--neuro-bg-dot, rgba(72, 105, 170, 0.28))" opacity="0.26" />
    <circle cx="1090.15" cy="136.79" r="1.92" fill="var(--neuro-bg-dot, rgba(72, 105, 170, 0.28))" opacity="0.3" />
    <circle cx="779.33" cy="400.27" r="1.74" fill="var(--neuro-bg-dot, rgba(72, 105, 170, 0.28))" opacity="0.27" />
    <circle cx="855.46" cy="344.38" r="1.42" fill="var(--neuro-bg-dot-soft, rgba(80, 82, 92, 0.16))" opacity="0.2" />
    <circle cx="1002.11" cy="317.62" r="1.33" fill="var(--neuro-bg-dot-soft, rgba(80, 82, 92, 0.16))" opacity="0.34" />
    <circle cx="1021.73" cy="213.23" r="1.32" fill="var(--neuro-bg-dot, rgba(72, 105, 170, 0.28))" opacity="0.12" />
    <circle cx="859.26" cy="755.29" r="1.21" fill="var(--neuro-bg-dot-soft, rgba(80, 82, 92, 0.16))" opacity="0.07" />
    <circle cx="982.48" cy="809.89" r="1.05" fill="var(--neuro-bg-dot-soft, rgba(80, 82, 92, 0.16))" opacity="0.03" />
    <circle cx="861.8" cy="752.61" r="0.91" fill="var(--neuro-bg-dot-soft, rgba(80, 82, 92, 0.16))" opacity="0.03" />
    <circle cx="996.1" cy="789.1" r="1.28" fill="var(--neuro-bg-dot-soft, rgba(80, 82, 92, 0.16))" opacity="0.03" />
    <circle cx="911.23" cy="737.69" r="1.38" fill="var(--neuro-bg-dot-soft, rgba(80, 82, 92, 0.16))" opacity="0.06" />
    <circle cx="921.43" cy="781.48" r="1.22" fill="var(--neuro-bg-dot-soft, rgba(80, 82, 92, 0.16))" opacity="0.04" />
    <circle cx="848.37" cy="758.95" r="1" fill="var(--neuro-bg-dot-soft, rgba(80, 82, 92, 0.16))" opacity="0.07" />
    <circle cx="942.72" cy="776.16" r="1.2" fill="var(--neuro-bg-dot-soft, rgba(80, 82, 92, 0.16))" opacity="0.04" />
  </g>
</svg>
